<?xml version="1.0" encoding="utf-8"?>
<!-- Generator: Adobe Illustrator 23.0.3, SVG Export Plug-In . SVG Version: 6.00 Build 0)  -->
<svg version="1.1" id="Layer_1" xmlns="http://www.w3.org/2000/svg" xmlns:xlink="http://www.w3.org/1999/xlink" x="0px" y="0px"
	 viewBox="0 0 124 124" style="enable-background:new 0 0 124 124;" xml:space="preserve">
<style type="text/css">
	.st0{fill:#FFFFFF;}
	.st1{fill:none;stroke:#FFFFFF;stroke-miterlimit:10;}
	.st2{fill:none;stroke:#FFFFFF;stroke-linecap:round;stroke-linejoin:round;stroke-miterlimit:10;}
	.st3{fill:none;stroke:#FFFFFF;stroke-linejoin:round;stroke-miterlimit:10;}
	.st4{fill:none;stroke:#FFFFFF;stroke-linecap:round;stroke-miterlimit:10;}
	.st5{fill:#CCCCCC;}
	.st6{fill:#2B61A0;}
	.st7{fill:#FFF2E3;stroke:#C7B299;stroke-width:3;}
	.st8{fill:#004F9C;}
	.st9{fill:#51A4DB;}
	.st10{fill:#29B5B2;}
	.st11{fill:#EFDFCA;}
	.st12{fill:none;stroke:#C7B299;stroke-width:3;}
	.st13{fill:none;stroke:#C7B299;stroke-width:3;stroke-dasharray:5.1429,5.1429;}
	.st14{fill:#FFFFFF;stroke:#F2F2F2;stroke-width:3;}
	.st15{fill:#52A5DC;stroke:#A6E4F4;stroke-width:3;}
	.st16{fill:#DB5953;stroke:#F2B3A7;stroke-width:2;}
	.st17{fill:#E6E6E6;stroke:#F2F2F2;stroke-width:3;}
	.st18{fill:#A32B31;}
	.st19{fill:#0D75BC;stroke:#51A4DB;stroke-width:3;}
	.st20{fill:#666666;}
	.st21{fill:none;stroke:#FBB03B;stroke-width:5;stroke-miterlimit:10;}
	.st22{fill:none;stroke:#FFCE8D;stroke-width:5;stroke-miterlimit:10;}
	.st23{fill-rule:evenodd;clip-rule:evenodd;fill:#D0AB66;}
	.st24{fill-rule:evenodd;clip-rule:evenodd;fill:#700005;}
	.st25{fill:#D0AB66;}
	.st26{fill-rule:evenodd;clip-rule:evenodd;fill:#FFFFFF;}
	.st27{fill:#AC7225;}
	.st28{fill-rule:evenodd;clip-rule:evenodd;fill:#AC7225;}
</style>
<g>
	<path class="st17" d="M60.63,110.75L60.63,110.75c-1.38,0-2.5-1.13-2.5-2.5v-17c0-1.38,1.13-2.5,2.5-2.5h0c1.38,0,2.5,1.12,2.5,2.5
		v17C63.13,109.63,62,110.75,60.63,110.75z"/>
	<path class="st19" d="M79.13,114.75h-37c-1.65,0-3-1.35-3-3v0c0-1.65,1.35-3,3-3h37c1.65,0,3,1.35,3,3v0
		C82.13,113.4,80.78,114.75,79.13,114.75z"/>
	<g>
		<path class="st17" d="M68.63,73.25c0-1.38,1.13-2.5,2.5-2.5h4.5v-4.5h-5c-1.38,0-2.5-1.13-2.5-2.5c0-1.38,1.13-2.5,2.5-2.5h5v-4.5
			h-5.5c-1.38,0-2.5-1.13-2.5-2.5s1.13-2.5,2.5-2.5h5.5v-0.5c0-5.78-4.73-10.5-10.5-10.5h-9c-5.78,0-10.5,4.72-10.5,10.5v0.5h4.5
			c1.38,0,2.5,1.13,2.5,2.5s-1.13,2.5-2.5,2.5h-4.5v4.5h5c1.38,0,2.5,1.13,2.5,2.5c0,1.38-1.13,2.5-2.5,2.5h-5v4.5h5.5
			c1.38,0,2.5,1.13,2.5,2.5s-1.13,2.5-2.5,2.5h-5.5v5.5c0,5.77,4.72,10.5,10.5,10.5h9c5.77,0,10.5-4.73,10.5-10.5v-5.5h-4.5
			C69.75,75.75,68.63,74.63,68.63,73.25z"/>
		<path class="st20" d="M52.63,54.25c0-1.38-1.13-2.5-2.5-2.5h-4.5v5h4.5C51.5,56.75,52.63,55.63,52.63,54.25z"/>
		<path class="st20" d="M53.13,63.75c0-1.38-1.13-2.5-2.5-2.5h-5v5h5C52,66.25,53.13,65.13,53.13,63.75z"/>
		<path class="st20" d="M53.63,73.25c0-1.38-1.13-2.5-2.5-2.5h-5.5v5h5.5C52.5,75.75,53.63,74.63,53.63,73.25z"/>
		<path class="st20" d="M67.63,54.25c0,1.38,1.13,2.5,2.5,2.5h5.5v-5h-5.5C68.75,51.75,67.63,52.88,67.63,54.25z"/>
		<path class="st20" d="M68.13,63.75c0,1.38,1.13,2.5,2.5,2.5h5v-5h-5C69.25,61.25,68.13,62.38,68.13,63.75z"/>
		<path class="st20" d="M71.13,70.75c-1.38,0-2.5,1.13-2.5,2.5s1.13,2.5,2.5,2.5h4.5v-5H71.13z"/>
	</g>
	<g>
		<path class="st21" d="M44.01,31.97c4.17-2.56,8.97-4.19,14.11-4.6"/>
		<path class="st22" d="M77.61,32.07c-4.26-2.65-9.19-4.34-14.48-4.73"/>
		<path class="st22" d="M88.72,43.72c-1.83-3.29-4.23-6.21-7.05-8.65"/>
		<path class="st22" d="M39.93,34.96c-3,2.57-5.52,5.67-7.41,9.18"/>
		<path class="st21" d="M88.76,27.98c3.5,3.14,6.48,6.86,8.78,11.02"/>
		<path class="st21" d="M63.13,17.33c8.05,0.45,15.49,3.16,21.7,7.52"/>
		<path class="st21" d="M32.85,27.87c-3.68,3.27-6.79,7.17-9.14,11.54"/>
		<path class="st22" d="M36.8,24.75c6.12-4.26,13.43-6.92,21.33-7.41"/>
		<path class="st22" d="M63.13,8.31C73.66,8.8,83.36,12.47,91.27,18.4"/>
		<path class="st22" d="M105.47,34.75c-2.71-4.94-6.21-9.37-10.33-13.14"/>
		<path class="st21" d="M58.13,8.32c-10.38,0.52-19.94,4.15-27.78,9.98"/>
		<path class="st22" d="M26.47,21.49c-4.29,3.9-7.92,8.52-10.69,13.67"/>
	</g>
</g>
</svg>
