<?xml version="1.0" encoding="utf-8"?>
<!-- Generator: Adobe Illustrator 23.0.3, SVG Export Plug-In . SVG Version: 6.00 Build 0)  -->
<svg version="1.1" id="Layer_1" xmlns="http://www.w3.org/2000/svg" xmlns:xlink="http://www.w3.org/1999/xlink" x="0px" y="0px"
	 viewBox="0 0 124 124" style="enable-background:new 0 0 124 124;" xml:space="preserve">
<style type="text/css">
	.st0{fill:#FFFFFF;}
	.st1{fill:none;stroke:#FFFFFF;stroke-miterlimit:10;}
	.st2{fill:none;stroke:#FFFFFF;stroke-linecap:round;stroke-linejoin:round;stroke-miterlimit:10;}
	.st3{fill:none;stroke:#FFFFFF;stroke-linejoin:round;stroke-miterlimit:10;}
	.st4{fill:none;stroke:#FFFFFF;stroke-linecap:round;stroke-miterlimit:10;}
	.st5{fill:#CCCCCC;}
	.st6{fill:#2B61A0;}
	.st7{fill:#FFF2E3;stroke:#C7B299;stroke-width:3;}
	.st8{fill:#004F9C;}
	.st9{fill:#51A4DB;}
	.st10{fill:#29B5B2;}
	.st11{fill:#EFDFCA;}
	.st12{fill:none;stroke:#C7B299;stroke-width:3;}
	.st13{fill:none;stroke:#C7B299;stroke-width:3;stroke-dasharray:5.1429,5.1429;}
	.st14{fill:#FFFFFF;stroke:#F2F2F2;stroke-width:3;}
	.st15{fill:#52A5DC;stroke:#A6E4F4;stroke-width:3;}
	.st16{fill:#DB5953;stroke:#F2B3A7;stroke-width:2;}
	.st17{fill:#E6E6E6;stroke:#F2F2F2;stroke-width:3;}
	.st18{fill:#A32B31;}
	.st19{fill:#0D75BC;stroke:#51A4DB;stroke-width:3;}
	.st20{fill:#666666;}
	.st21{fill:none;stroke:#FBB03B;stroke-width:5;stroke-miterlimit:10;}
	.st22{fill:none;stroke:#FFCE8D;stroke-width:5;stroke-miterlimit:10;}
	.st23{fill-rule:evenodd;clip-rule:evenodd;fill:#D0AB66;}
	.st24{fill-rule:evenodd;clip-rule:evenodd;fill:#700005;}
	.st25{fill:#D0AB66;}
	.st26{fill-rule:evenodd;clip-rule:evenodd;fill:#FFFFFF;}
	.st27{fill:#AC7225;}
	.st28{fill-rule:evenodd;clip-rule:evenodd;fill:#AC7225;}
</style>
<g>
	<path class="st7" d="M89.88,39.25c0-3.32,2.43-6.07,5.62-6.58V14.58c0-4.4-3.6-8-8-8h-53c-4.4,0-8,3.6-8,8v18c0.02,0,0.03,0,0.05,0
		c3.68,0,6.67,2.98,6.67,6.67s-2.98,6.67-6.67,6.67c-0.02,0-0.03,0-0.05,0v65c0,4.4,3.6,8,8,8h53c4.4,0,8-3.6,8-8V45.83
		C92.32,45.32,89.88,42.57,89.88,39.25z"/>
	<g>
		<g>
			<path class="st8" d="M58.2,65.09c1.38,0,2.67,0.36,3.8,0.99c1.12-0.63,2.42-0.99,3.8-0.99c3.57,0,6.58,2.41,7.5,5.69h0.13
				c-1.15-5.26-5.83-9.2-11.43-9.2c-5.6,0-10.28,3.94-11.43,9.2h0.14C51.62,67.5,54.63,65.09,58.2,65.09z"/>
			<path class="st9" d="M62,66.08c-1.12-0.63-2.42-0.99-3.8-0.99c-3.57,0-6.58,2.41-7.5,5.69h7.59C58.86,68.77,60.21,67.08,62,66.08
				z"/>
			<path class="st10" d="M65.8,65.09c-1.38,0-2.67,0.36-3.8,0.99c1.79,1,3.14,2.69,3.7,4.7h7.59C72.38,67.5,69.37,65.09,65.8,65.09z
				"/>
		</g>
		<polygon class="st8" points="87.2,89.66 86.62,88.52 37.39,88.52 36.8,89.66 		"/>
		<g>
			<polygon class="st8" points="42.89,73.93 43.22,86.44 40.75,86.44 41.09,73.93 			"/>
			<polygon class="st8" points="48.6,73.93 48.94,86.44 46.47,86.44 46.8,73.93 			"/>
			<polygon class="st8" points="54.32,73.93 54.66,86.44 52.19,86.44 52.52,73.93 			"/>
			<polygon class="st8" points="60.04,73.93 60.38,86.44 57.91,86.44 58.24,73.93 			"/>
			<polygon class="st8" points="65.75,73.93 66.09,86.44 63.62,86.44 63.96,73.93 			"/>
			<polygon class="st8" points="71.47,73.93 71.81,86.44 69.34,86.44 69.67,73.93 			"/>
			<polygon class="st8" points="77.19,73.93 77.53,86.44 75.06,86.44 75.39,73.93 			"/>
			<polygon class="st8" points="82.91,73.93 83.25,86.44 80.78,86.44 81.11,73.93 			"/>
		</g>
		<polygon class="st8" points="36.8,71.92 37.39,73.06 86.62,73.06 87.2,71.92 		"/>
		<polygon class="st8" points="39.12,87.32 38.78,87.98 85.22,87.98 84.88,87.32 		"/>
	</g>
	<g>
		<g>
			<line class="st12" x1="41.8" y1="37.75" x2="44.3" y2="37.75"/>
			<line class="st13" x1="49.44" y1="37.75" x2="77.73" y2="37.75"/>
			<line class="st12" x1="80.3" y1="37.75" x2="82.8" y2="37.75"/>
		</g>
	</g>
</g>
</svg>
