<?xml version="1.0" encoding="utf-8"?>
<!-- Generator: Adobe Illustrator 23.0.3, SVG Export Plug-In . SVG Version: 6.00 Build 0)  -->
<svg version="1.1" id="Layer_1" xmlns="http://www.w3.org/2000/svg" xmlns:xlink="http://www.w3.org/1999/xlink" x="0px" y="0px"
	 viewBox="0 0 124 124" style="enable-background:new 0 0 124 124;" xml:space="preserve">
<style type="text/css">
	.st0{fill:#FFFFFF;}
	.st1{fill:none;stroke:#FFFFFF;stroke-miterlimit:10;}
	.st2{fill:none;stroke:#FFFFFF;stroke-linecap:round;stroke-linejoin:round;stroke-miterlimit:10;}
	.st3{fill:none;stroke:#FFFFFF;stroke-linejoin:round;stroke-miterlimit:10;}
	.st4{fill:none;stroke:#FFFFFF;stroke-linecap:round;stroke-miterlimit:10;}
	.st5{fill:#CCCCCC;}
	.st6{fill:#2B61A0;}
	.st7{fill:#FFF2E3;stroke:#C7B299;stroke-width:3;}
	.st8{fill:#004F9C;}
	.st9{fill:#51A4DB;}
	.st10{fill:#29B5B2;}
	.st11{fill:#EFDFCA;}
	.st12{fill:none;stroke:#C7B299;stroke-width:3;}
	.st13{fill:none;stroke:#C7B299;stroke-width:3;stroke-dasharray:5.1429,5.1429;}
	.st14{fill:#FFFFFF;stroke:#F2F2F2;stroke-width:3;}
	.st15{fill:#52A5DC;stroke:#A6E4F4;stroke-width:3;}
	.st16{fill:#DB5953;stroke:#F2B3A7;stroke-width:2;}
	.st17{fill:#E6E6E6;stroke:#F2F2F2;stroke-width:3;}
	.st18{fill:#A32B31;}
	.st19{fill:#0D75BC;stroke:#51A4DB;stroke-width:3;}
	.st20{fill:#666666;}
	.st21{fill:none;stroke:#FBB03B;stroke-width:5;stroke-miterlimit:10;}
	.st22{fill:none;stroke:#FFCE8D;stroke-width:5;stroke-miterlimit:10;}
	.st23{fill-rule:evenodd;clip-rule:evenodd;fill:#D0AB66;}
	.st24{fill-rule:evenodd;clip-rule:evenodd;fill:#700005;}
	.st25{fill:#D0AB66;}
	.st26{fill-rule:evenodd;clip-rule:evenodd;fill:#FFFFFF;}
	.st27{fill:#AC7225;}
	.st28{fill-rule:evenodd;clip-rule:evenodd;fill:#AC7225;}
</style>
<g>
	<rect x="52.5" y="85.75" class="st17" width="19" height="11"/>
	<path class="st17" d="M104,86.25H20c-4.4,0-8-3.6-8-8v-55c0-4.4,3.6-8,8-8h84c4.4,0,8,3.6,8,8v55C112,82.65,108.4,86.25,104,86.25z
		"/>
	<rect x="20.5" y="23.75" class="st0" width="83" height="54"/>
	<path class="st18" d="M76.5,66.25h-29c-4.13,0-7.5-3.38-7.5-7.5v-14c0-4.13,3.38-7.5,7.5-7.5h29c4.13,0,7.5,3.38,7.5,7.5v14
		C84,62.88,80.63,66.25,76.5,66.25z"/>
	<polygon class="st0" points="58.61,46.1 67.3,52.25 58.61,58.4 	"/>
	<path class="st17" d="M97.8,104.75h-71v0c0-5.52,4.48-10,10-10h51C93.32,94.75,97.8,99.23,97.8,104.75L97.8,104.75z"/>
</g>
</svg>
