<?xml version="1.0" encoding="utf-8"?>
<!-- Generator: Adobe Illustrator 23.0.3, SVG Export Plug-In . SVG Version: 6.00 Build 0)  -->
<svg version="1.1" id="Layer_1" xmlns="http://www.w3.org/2000/svg" xmlns:xlink="http://www.w3.org/1999/xlink" x="0px" y="0px"
	 viewBox="0 0 124 124" style="enable-background:new 0 0 124 124;" xml:space="preserve">
<style type="text/css">
	.st0{fill:#FFFFFF;}
	.st1{fill:none;stroke:#FFFFFF;stroke-miterlimit:10;}
	.st2{fill:none;stroke:#FFFFFF;stroke-linecap:round;stroke-linejoin:round;stroke-miterlimit:10;}
	.st3{fill:none;stroke:#FFFFFF;stroke-linejoin:round;stroke-miterlimit:10;}
	.st4{fill:none;stroke:#FFFFFF;stroke-linecap:round;stroke-miterlimit:10;}
	.st5{fill:#CCCCCC;}
	.st6{fill:#2B61A0;}
	.st7{fill:#FFF2E3;stroke:#C7B299;stroke-width:3;}
	.st8{fill:#004F9C;}
	.st9{fill:#51A4DB;}
	.st10{fill:#29B5B2;}
	.st11{fill:#EFDFCA;}
	.st12{fill:none;stroke:#C7B299;stroke-width:3;}
	.st13{fill:none;stroke:#C7B299;stroke-width:3;stroke-dasharray:5.1429,5.1429;}
	.st14{fill:#FFFFFF;stroke:#F2F2F2;stroke-width:3;}
	.st15{fill:#52A5DC;stroke:#A6E4F4;stroke-width:3;}
	.st16{fill:#DB5953;stroke:#F2B3A7;stroke-width:2;}
	.st17{fill:#E6E6E6;stroke:#F2F2F2;stroke-width:3;}
	.st18{fill:#A32B31;}
	.st19{fill:#0D75BC;stroke:#51A4DB;stroke-width:3;}
	.st20{fill:#666666;}
	.st21{fill:none;stroke:#FBB03B;stroke-width:5;stroke-miterlimit:10;}
	.st22{fill:none;stroke:#FFCE8D;stroke-width:5;stroke-miterlimit:10;}
	.st23{fill-rule:evenodd;clip-rule:evenodd;fill:#D0AB66;}
	.st24{fill-rule:evenodd;clip-rule:evenodd;fill:#700005;}
	.st25{fill:#D0AB66;}
	.st26{fill-rule:evenodd;clip-rule:evenodd;fill:#FFFFFF;}
	.st27{fill:#AC7225;}
	.st28{fill-rule:evenodd;clip-rule:evenodd;fill:#AC7225;}
</style>
<g>
	<path class="st23" d="M62,9.92C33.24,9.92,9.92,33.24,9.92,62c0,28.76,23.32,52.08,52.08,52.08c28.76,0,52.08-23.31,52.08-52.08
		C114.08,33.24,90.77,9.92,62,9.92z"/>
	<path class="st24" d="M62,112.08c-27.65,0-50.08-22.42-50.08-50.07c0-27.66,22.42-50.07,50.08-50.07
		c27.66,0,50.08,22.42,50.08,50.07C112.08,89.66,89.66,112.08,62,112.08z"/>
	<path class="st25" d="M103.64,48.25c-1.06-3.21-3.91-5.48-7.29-5.82c-0.63-2.9-2.8-4.4-3.45-4.8c-2.43-1.58-5.09-1.24-5.69-1.13
		c-0.36-0.44-1.56-1.72-3.56-1.95c-0.62-0.06-1.3,0.01-1.96,0.22c-0.04,0.01-0.07,0.02-0.11,0.04c0-0.03,0-0.07,0-0.1
		c0-0.69-0.13-1.36-0.39-1.93c-0.83-1.83-2.42-2.58-2.95-2.79c-0.09-0.6-0.58-3.24-2.85-5.07c-0.57-0.5-2.67-2.08-5.62-1.79
		C68.41,20.03,65.37,18.02,62,18c-3.37,0.01-6.42,2.03-7.79,5.14c-2.95-0.29-5.05,1.3-5.63,1.8c-2.26,1.83-2.75,4.47-2.84,5.07
		c-0.53,0.21-2.12,0.96-2.95,2.79c-0.26,0.57-0.39,1.24-0.39,1.93c0,0.04,0,0.08,0,0.11c-0.03-0.01-0.06-0.02-0.09-0.03
		c-0.66-0.21-1.33-0.29-1.95-0.22c-2.01,0.22-3.21,1.51-3.57,1.95c-0.6-0.11-3.26-0.45-5.7,1.13c-0.65,0.39-2.81,1.9-3.45,4.79
		c-3.37,0.34-6.23,2.62-7.29,5.82c-1.03,3.21-0.06,6.73,2.48,8.99c-1.19,2.72-0.32,5.21-0.03,5.91c1.04,2.71,3.4,4,3.94,4.26
		C26.78,68,27,69.74,28.49,71.1c0.46,0.42,1.06,0.76,1.71,0.97c0.03,0.01,0.07,0.02,0.11,0.03c-0.02,0.02-0.04,0.05-0.06,0.08
		c-0.41,0.56-0.69,1.18-0.82,1.79c-0.4,1.97,0.44,3.51,0.75,3.99c-0.29,0.54-1.44,2.96-0.68,5.77c0.17,0.74,0.93,3.26,3.49,4.76
		c-0.72,3.32,0.56,6.74,3.28,8.73c2.74,1.97,6.38,2.13,9.32,0.42c2.22,1.97,4.85,1.92,5.61,1.85c2.9-0.15,4.85-1.99,5.27-2.43
		c0.55,0.15,2.27,0.47,4.03-0.52c0.54-0.31,1.05-0.77,1.45-1.33c0.02-0.03,0.04-0.06,0.06-0.09c0.02,0.03,0.04,0.06,0.06,0.08
		c0.41,0.56,0.91,1.02,1.45,1.33c1.75,1,3.47,0.67,4.03,0.52c0.42,0.44,2.37,2.28,5.28,2.43c0.75,0.06,3.39,0.11,5.6-1.85
		c2.93,1.71,6.58,1.55,9.31-0.42c2.72-1.99,4-5.41,3.28-8.73c2.56-1.5,3.32-4.02,3.49-4.77c0.75-2.8-0.4-5.22-0.69-5.77
		c0.31-0.47,1.16-2.01,0.75-3.99c-0.13-0.61-0.41-1.23-0.82-1.79c-0.02-0.03-0.04-0.06-0.07-0.09c0.03-0.01,0.06-0.02,0.09-0.03
		c0.66-0.21,1.25-0.55,1.71-0.97c1.49-1.36,1.71-3.1,1.74-3.67c0.55-0.27,2.9-1.55,3.95-4.27c0.3-0.7,1.16-3.19-0.03-5.9
		C103.7,54.98,104.67,51.46,103.64,48.25z"/>
	<path class="st26" d="M62,81.47c-10.75,0-19.47-8.72-19.47-19.47c0-10.76,8.72-19.47,19.47-19.47c10.75,0,19.47,8.71,19.47,19.47
		C81.47,72.76,72.76,81.47,62,81.47z"/>
	<g>
		<path class="st27" d="M64.11,40.14c1.33-6.61,2.83-14.12,3.1-15.46c-0.34-2.27-2.61-4.16-5.21-4.18c-2.55,0.03-4.83,1.89-5.2,4.15
			c0.28,1.42,1.79,8.9,3.11,15.49c0.69-0.07,1.39-0.1,2.09-0.1C62.71,40.03,63.41,40.07,64.11,40.14z"/>
		<path class="st27" d="M55.16,25.93c-0.51-0.17-1.04-0.28-1.59-0.28c-1.38,0-2.64,0.51-3.54,1.43c-0.76,0.77-1.19,1.78-1.25,2.86
			c0.94,1.57,4,6.68,6.65,11.1c0.86-0.27,1.74-0.48,2.64-0.64C56.95,34.87,55.59,28.06,55.16,25.93z"/>
		<path class="st27" d="M75.22,29.93c-0.06-1.08-0.49-2.09-1.25-2.86c-0.91-0.92-2.17-1.43-3.54-1.43c-0.55,0-1.08,0.1-1.59,0.28
			c-0.43,2.14-1.8,8.94-2.9,14.47c0.9,0.16,1.78,0.37,2.64,0.64C71.21,36.62,74.28,31.5,75.22,29.93z"/>
		<path class="st28" d="M49.83,43.72c1.2-0.8,2.48-1.48,3.82-2.03c-2.76-4.61-5.39-9-5.66-9.46c-0.04,0-0.07,0-0.07,0
			c-1.61,0-3.34,1.65-3.34,3.26c0,0.6,0.19,1.19,0.58,1.75L49.83,43.72z"/>
		<path class="st28" d="M74.18,43.72c-1.2-0.8-2.47-1.48-3.82-2.03c2.76-4.61,5.38-9,5.66-9.46c0.05,0,0.08,0,0.08,0
			c1.61,0,3.34,1.65,3.34,3.26c0,0.6-0.19,1.19-0.58,1.75L74.18,43.72z"/>
	</g>
	<g>
		<path class="st27" d="M41.86,53.24c-5.88-3.3-12.55-7.06-13.75-7.73c-2.26-0.38-4.76,1.2-5.59,3.67c-0.76,2.43,0.3,5.17,2.34,6.22
			c1.44,0.17,9.02,1.05,15.69,1.83c0.15-0.67,0.33-1.35,0.55-2.02C41.33,54.54,41.58,53.88,41.86,53.24z"/>
		<path class="st27" d="M25.58,57.36c-0.33,0.43-0.58,0.91-0.75,1.42c-0.43,1.31-0.33,2.67,0.26,3.81c0.5,0.96,1.32,1.68,2.33,2.07
			c1.78-0.4,7.6-1.74,12.61-2.89c0.01-0.9,0.08-1.8,0.2-2.7C34.63,58.42,27.74,57.61,25.58,57.36z"/>
		<path class="st27" d="M35.58,39.52c-1.04-0.28-2.14-0.18-3.1,0.3c-1.16,0.59-2.03,1.62-2.45,2.93c-0.17,0.52-0.24,1.06-0.23,1.6
			c1.9,1.07,7.95,4.47,12.86,7.23c0.43-0.81,0.91-1.58,1.43-2.31C40.71,45.39,36.78,40.9,35.58,39.52z"/>
		<path class="st28" d="M40.85,67.93c-0.39-1.38-0.64-2.81-0.75-4.26c-5.24,1.2-10.23,2.34-10.74,2.46
			c-0.02,0.04-0.03,0.07-0.03,0.07c-0.5,1.53,0.54,3.69,2.07,4.19c0.57,0.18,1.19,0.18,1.84-0.01L40.85,67.93z"/>
		<path class="st28" d="M48.38,44.77c-1.13,0.89-2.17,1.89-3.11,3c-3.53-4.05-6.9-7.9-7.25-8.3c0.01-0.04,0.02-0.07,0.02-0.07
			c0.5-1.53,2.61-2.67,4.13-2.17c0.57,0.18,1.07,0.55,1.48,1.09L48.38,44.77z"/>
	</g>
	<g>
		<path class="st27" d="M83.45,57.25c6.7-0.78,14.31-1.67,15.66-1.83c2.05-1.02,3.14-3.77,2.37-6.25c-0.81-2.42-3.28-4-5.56-3.66
			c-1.26,0.71-7.91,4.45-13.77,7.74c0.27,0.64,0.53,1.29,0.74,1.96C83.11,55.89,83.29,56.56,83.45,57.25z"/>
		<path class="st27" d="M94.19,44.35c0.01-0.54-0.06-1.08-0.23-1.6c-0.42-1.31-1.3-2.35-2.45-2.93c-0.97-0.49-2.06-0.59-3.1-0.31
			c-1.2,1.38-5.12,5.87-8.51,9.75c0.52,0.73,1,1.51,1.43,2.31C86.24,48.82,92.29,45.42,94.19,44.35z"/>
		<path class="st27" d="M96.58,64.66c1.01-0.39,1.83-1.11,2.33-2.07c0.59-1.15,0.69-2.5,0.26-3.81c-0.17-0.52-0.43-0.99-0.75-1.43
			c-2.17,0.25-9.06,1.06-14.65,1.7c0.12,0.91,0.19,1.81,0.21,2.71C88.99,62.92,94.8,64.26,96.58,64.66z"/>
		<path class="st28" d="M75.62,44.77c1.13,0.89,2.17,1.89,3.12,3c3.53-4.05,6.9-7.9,7.25-8.31c-0.01-0.04-0.02-0.07-0.02-0.07
			c-0.5-1.53-2.61-2.67-4.13-2.17c-0.57,0.18-1.07,0.55-1.48,1.09L75.62,44.77z"/>
		<path class="st28" d="M83.15,67.93c0.39-1.38,0.65-2.81,0.75-4.26c5.24,1.2,10.23,2.34,10.75,2.46c0.01,0.04,0.02,0.07,0.02,0.07
			c0.5,1.53-0.54,3.69-2.07,4.19c-0.57,0.18-1.19,0.18-1.84-0.01L83.15,67.93z"/>
	</g>
	<g>
		<path class="st27" d="M47.44,78.45c-4.96,4.57-10.59,9.76-11.6,10.68c-1.06,2.04-0.33,4.9,1.76,6.45
			c2.08,1.48,5.01,1.31,6.64-0.31c0.61-1.31,3.79-8.25,6.59-14.36c-0.6-0.35-1.18-0.73-1.75-1.15
			C48.51,79.35,47.97,78.91,47.44,78.45z"/>
		<path class="st27" d="M46.33,95.21c0.31,0.45,0.68,0.84,1.12,1.16c1.11,0.81,2.43,1.14,3.71,0.93c1.06-0.18,2.01-0.73,2.69-1.58
			c0.16-1.82,0.69-7.76,1.15-12.89c-0.86-0.29-1.69-0.63-2.51-1.03C50.13,86.92,47.24,93.22,46.33,95.21z"/>
		<path class="st27" d="M32.46,80.17c-0.59,0.91-0.83,1.98-0.67,3.04c0.2,1.28,0.92,2.43,2.03,3.24c0.44,0.32,0.93,0.55,1.45,0.71
			c1.61-1.48,6.71-6.18,10.85-10c-0.63-0.66-1.22-1.35-1.76-2.07C39.62,77.12,34.13,79.46,32.46,80.17z"/>
		<path class="st28" d="M61.1,83.95c-1.43-0.06-2.87-0.26-4.28-0.6c-0.48,5.35-0.94,10.45-0.98,10.98c0.03,0.03,0.06,0.05,0.06,0.05
			c1.3,0.94,3.68,0.63,4.62-0.67c0.35-0.48,0.54-1.07,0.56-1.75L61.1,83.95z"/>
		<path class="st28" d="M41.4,69.63c0.5,1.35,1.13,2.65,1.9,3.89c-4.94,2.11-9.65,4.12-10.14,4.33c-0.04-0.03-0.07-0.05-0.07-0.05
			c-1.3-0.94-1.73-3.3-0.79-4.6c0.35-0.48,0.85-0.85,1.49-1.07L41.4,69.63z"/>
	</g>
	<g>
		<path class="st27" d="M73.15,80.93c2.81,6.13,6.01,13.09,6.58,14.33c1.61,1.64,4.56,1.83,6.68,0.32c2.05-1.52,2.79-4.36,1.76-6.41
			c-1.07-0.98-6.68-6.15-11.62-10.7c-0.52,0.46-1.06,0.9-1.63,1.31C74.34,80.19,73.75,80.57,73.15,80.93z"/>
		<path class="st27" d="M88.74,87.16c0.52-0.16,1.01-0.39,1.45-0.71c1.11-0.81,1.84-1.96,2.03-3.24c0.16-1.07-0.07-2.14-0.67-3.05
			c-1.68-0.71-7.17-3.05-11.9-5.07c-0.53,0.72-1.12,1.41-1.75,2.07C82.03,80.98,87.14,85.68,88.74,87.16z"/>
		<path class="st27" d="M70.16,95.71c0.68,0.84,1.62,1.4,2.69,1.58c1.28,0.21,2.59-0.12,3.71-0.93c0.44-0.32,0.81-0.71,1.12-1.16
			c-0.91-1.98-3.8-8.29-6.15-13.41c-0.82,0.39-1.66,0.74-2.51,1.03C69.46,87.95,69.99,93.9,70.16,95.71z"/>
		<path class="st28" d="M82.59,69.64c-0.5,1.34-1.13,2.65-1.89,3.89c4.94,2.1,9.65,4.12,10.14,4.33c0.04-0.03,0.06-0.05,0.06-0.05
			c1.3-0.94,1.74-3.3,0.79-4.6c-0.35-0.48-0.85-0.84-1.49-1.07L82.59,69.64z"/>
		<path class="st28" d="M62.89,83.95c1.44-0.06,2.87-0.26,4.29-0.6c0.48,5.35,0.94,10.45,0.98,10.98c-0.03,0.02-0.06,0.04-0.06,0.04
			c-1.3,0.94-3.68,0.63-4.62-0.67c-0.35-0.48-0.54-1.07-0.56-1.75L62.89,83.95z"/>
	</g>
	<g>
		<path class="st25" d="M71.9,56.93c0.23,0,0.5-0.03,0.7-0.04c0.03,0,0.05,0,0.07,0c0.05,0,0.13,0.03,0.14,0.03c0,0,0,0,0,0
			c0,0,0,0,0.01,0c0.01,0,0.02-0.01,0.03-0.02c0.02-0.01,0.05-0.02,0.06-0.03c0.01,0-0.01,0,0.03-0.01c0,0,0.01,0,0.02,0
			c0.05,0,0.14,0.01,0.25,0.02l0.02,0l0.01,0.01c0.02,0,0.05,0,0.09-0.01c0.02,0,0.04,0,0.06,0c0.09,0,0.18-0.01,0.22-0.02
			c0,0,0.03-0.02,0.08-0.06c0.04-0.04,0.09-0.1,0.13-0.19l0,0l0.01-0.02c0.09-0.19,0.14-0.48,0.14-0.79c0-0.38-0.06-0.72-0.2-0.89
			c0,0,0,0-0.01-0.02c-0.03-0.05-0.11-0.11-0.2-0.17c-0.22-0.02-0.43-0.04-0.63-0.05c-0.17,0-0.38-0.01-0.57-0.01
			c-0.16,0-0.33,0.01-0.46,0.03l-0.01,0h-0.01c-0.16-0.01-0.31-0.01-0.45-0.01c-0.17,0-0.31,0-0.42,0.01
			c-0.11,0-0.18,0.01-0.17,0.01c-0.19,0.05-0.42,0.06-0.65,0.06c-0.36,0-0.71-0.04-0.84-0.05l-0.05-0.01v-0.17l0.01-0.01
			c0.03-0.05,0.04-0.11,0.05-0.16c0-0.01,0-0.01,0-0.02c0-0.12-0.04-0.26-0.06-0.41v-0.44c0-0.09,0.01-0.19,0.01-0.27
			c0-0.09-0.01-0.16-0.01-0.18c-0.03-0.12-0.02-0.23-0.07-0.28c-0.11-0.06-0.11-0.09-0.2-0.14c-0.05-0.03-0.11-0.07-0.16-0.1
			c0-0.01-0.08-0.02-0.16-0.02c-0.08,0-0.18-0.01-0.27-0.03c-0.02,0-0.03,0-0.05,0c-0.04,0-0.09,0-0.13-0.01l0.01,0.01l-0.11,0
			c-0.07,0-0.14-0.01-0.22-0.01c-0.46,0-0.89,0.06-1.11,0.2c-0.24,0.15-0.25,0.41-0.25,0.45l-0.01,0l0.01,0.01v1.6h-1.05
			c-0.21-0.01-0.41-0.03-0.61-0.03c-0.01,0-0.02,0-0.03,0l-0.39,0.01c-0.01,0-0.01,0-0.01,0c-0.03,0-0.08,0-0.13,0
			c-0.02,0-0.04,0-0.06,0l0,0c-0.04,0-0.11,0.02-0.18,0.02c-0.04,0-0.08,0-0.12-0.03v0c0,0,0,0,0,0h0c-0.01,0-0.01,0-0.02,0
			c-0.02,0-0.04,0-0.05,0c-0.04,0-0.07,0.01-0.1,0.01c-0.03,0-0.06,0-0.08,0c-0.04,0-0.07,0-0.11,0.01
			c-0.06,0.01-0.1,0.02-0.14,0.02c-0.03,0-0.05,0-0.07,0c-0.02,0-0.04,0-0.07,0c-0.13,0.01-0.17,0.01-0.28,0.02
			c-0.06,0.01-0.13,0.01-0.21,0.01c-0.18,0-0.38-0.01-0.48-0.03c-0.03-0.01-0.06-0.01-0.08-0.01c-0.07,0-0.14,0.02-0.22,0.05
			c-0.02,0.01-0.04,0.01-0.06,0.02c-0.01,0-0.01,0.01-0.02,0.01c-0.02,0-0.03,0.02-0.06,0.04c-0.04,0.03-0.07,0.06-0.1,0.09
			c-0.13,0.17-0.2,0.52-0.2,0.89c0,0.33,0.05,0.63,0.15,0.82c0.01,0.02,0.05,0.08,0.05,0.08c0.1,0.11,0.05,0.11,0.22,0.2
			c0.07,0.03,0.11,0.04,0.16,0.04c0.03,0,0.07,0,0.12,0c0.02,0,0.04,0,0.06,0c0.01,0,0.02,0,0.03,0c0.15,0,0.48-0.04,0.69-0.04
			c0.05,0,0.09,0,0.13,0.01c0.01,0,0.02,0,0.03,0c0.08,0,0.24-0.04,0.35-0.05l0.01,0l0.87,0.06L64.41,57
			c-0.09,0.09-0.18,0.19-0.26,0.29c-0.27,0.26-0.52,0.59-0.56,0.69c-0.15,0.36-0.13,0.56-0.27,0.87c-0.11,0.23-0.22,0.5-0.22,0.79h0
			l0,0.01c0,0.01,0,0.01,0,0.02c0,0.21,0.03,0.31,0.08,0.51l0,0.01l0,0.01c0.01,0.22,0.04,0.43,0.08,0.64
			c0.01,0.09,0.02,0.16,0.03,0.26c0.01,0.14-0.01,0.37,0.04,0.46c0.15,0.34,0.3,0.7,0.48,1.01c0.1,0.19,0.29,0.33,0.53,0.49
			c0.21,0.16,0.39,0.41,0.56,0.47c0.21,0.09,0.27,0.2,0.46,0.24c0.07,0.02,0.13,0.03,0.2,0.03l0.01,0l0.01,0.01
			c0.3,0.15,0.62,0.26,0.96,0.35l0.05,0.01v1.33l0.04,0.56l0,0.15l-0.06,0c-0.05,0-0.1,0-0.16,0c-0.06,0-0.12,0-0.17,0
			c-0.06,0.01-0.12,0.03-0.19,0.03c-0.01,0-0.03,0-0.04,0c-0.24,0-0.69-0.09-0.93-0.09c-0.02,0-0.04,0-0.06,0
			c-0.14,0.01-0.26,0.03-0.38,0.03c-0.08,0-0.17-0.01-0.28-0.03c-0.04-0.01-0.09-0.01-0.13-0.01c-0.07,0-0.15,0.01-0.24,0.01
			c-0.03,0-0.07,0-0.1-0.01c-0.28-0.04-0.56-0.04-0.86-0.06l-0.57-0.02c-0.04,0-0.07-0.01-0.11-0.01c-0.21,0-0.37,0.06-0.48,0.16
			l-0.01,0.01l-0.01,0c-0.05,0.03-0.11,0.07-0.15,0.12c-0.14,0.17-0.2,0.52-0.2,0.89c0,0.37,0.06,0.72,0.2,0.89
			c0.14,0.19,0.41,0.2,0.45,0.2c0.01,0,0.01,0,0.01,0h0.02l0.01,0c0.08,0.03,0.18,0.04,0.28,0.04c0.02,0,0.03,0,0.05,0l0.02,0
			l0.02,0.01c0.07,0.06,0.16,0.08,0.26,0.08c0.13,0,0.27-0.03,0.39-0.05c0.32-0.05,0.64-0.11,0.98-0.11c0.19,0,0.37,0.02,0.56,0.07
			c0.02,0.01,0.06,0.01,0.1,0.01c0.09,0,0.21-0.02,0.3-0.02c0.32,0,0.52-0.13,0.82-0.13c0.09,0,0.2,0.01,0.32,0.05l0,0
			c0,0,0.01,0,0.02,0c0.07,0,0.23-0.02,0.33-0.02c0.03,0,0.05,0,0.07,0.01c0.01,0,0.02,0,0.04,0c0.06,0,0.15-0.02,0.23-0.02
			c0.02,0,0.05,0,0.07,0c0.1,0,0.19,0,0.29,0c0.07,0,0.13,0,0.2-0.01c0.08-0.01,0.15-0.01,0.23-0.01c0.3,0,0.6,0.06,0.89,0.06
			c0.01,0,0.01,0,0.01,0c0,0,0,0,0.01,0c0.1,0,0.29,0.03,0.4,0.09c0,0,0,0,0,0c0,0,0.01,0,0.01,0c0.01,0,0.03,0,0.06,0
			c0.02,0,0.04,0,0.06,0c0.02,0,0.03,0,0.04,0c0.02,0,0.04,0,0.07,0.01c0.28,0,0.45-0.03,0.75-0.03c0.27,0,0.45-0.05,0.71-0.05
			c0.03,0,0.05,0,0.08,0h0c0.09,0.01,0.09,0.05,0.12,0.04c0,0,0.01,0,0,0c0.1-0.01,0.24-0.01,0.4-0.01c0.45,0,1,0.02,1.05,0.03
			c0,0,0,0,0,0c0,0,0.01,0,0.02,0.01l0,0c0.02,0.02,0.05,0.03,0.1,0.03c0.13,0,0.33-0.11,0.51-0.11c0.01,0,0.02,0,0.03,0
			c0.12,0.01,1.38,0.09,2.08,0.09c0.03,0,0.06,0,0.08,0l0.06,0v2.87l0,0c0,0.04,0.01,0.3,0.25,0.45c0.22,0.14,0.65,0.2,1.11,0.2
			c0.46,0,0.89-0.06,1.11-0.2c0.24-0.15,0.25-0.41,0.25-0.45v-0.01l0-0.21l-0.01-0.05l-0.01-0.35c-0.02-0.14-0.05-0.28-0.07-0.43
			c-0.01-0.1-0.04-0.22-0.06-0.32c0-0.02-0.01-0.04-0.01-0.07c0-0.18,0.06-0.58,0.06-0.75c0-0.03,0-0.06,0-0.06l0,0
			c-0.01-0.01,0-0.02,0-0.03c0-0.07,0.09-0.45,0.1-0.52c0-0.01,0-0.02,0.01-0.03c0.01-0.02,0.01-0.05,0.01-0.1
			c0-0.24-0.13-0.67-0.17-0.85c-0.02-0.1-0.02-0.15-0.02-0.2c0-0.06,0-0.11,0.01-0.22v-0.03c0-0.09-0.01-0.24-0.01-0.35
			c0-0.05,0-0.09,0-0.12c0.01-0.11,0.01-0.19,0.06-0.29c0.05-0.11,0.05-0.07,0.05-0.16v-0.01c0-0.06-0.04-0.15-0.04-0.25
			c0-0.01,0-0.01,0-0.01c0-0.25,0.01-0.5,0.01-0.75c0-0.28-0.01-0.55-0.03-0.83l-0.01-3.77c0-0.11,0-0.21,0-0.32
			c0-0.3,0.01-0.59,0.03-0.85c0-0.12,0.06-0.25,0.06-0.33c0,0,0-0.01,0-0.02c0-0.03,0-0.06,0-0.1c0-0.21,0.03-0.51,0.03-0.74
			c0-0.03,0-0.05,0-0.07c-0.02-0.17-0.04-0.3-0.04-0.46c0-0.05,0-0.11,0.01-0.17c0.02-0.13,0.02-0.25,0.02-0.38c0-0.07,0-0.13,0-0.2
			l-0.04-0.56c0,0,0-0.01,0-0.01c0-0.07,0.01-0.14,0.03-0.19l0.07-2.05L78,53.82V53.1c0-0.04-0.01-0.3-0.25-0.45
			c-0.22-0.14-0.65-0.2-1.11-0.2c-0.46,0-0.89,0.06-1.11,0.2c-0.24,0.15-0.25,0.41-0.25,0.45c0,0,0,0,0,0.01v2.12l0.05,1.6
			c-0.01,0.15-0.02,0.25-0.02,0.33c0,0.01,0,0.02,0,0.04c0,0.12,0.01,0.18,0.01,0.27c0,0.02,0,0.04,0,0.07
			c-0.01,0.13-0.01,0.27-0.02,0.41c-0.02,0.27-0.02,0.46-0.02,0.73c0,0.02,0,0.03,0,0.05c0,0.19,0.04,0.32,0.04,0.53
			c0,0.03,0,0.06,0,0.1c-0.02,0.31-0.04,0.31-0.06,0.41c-0.03,0.13-0.04,0.25-0.04,0.38c0,0.23,0.03,0.46,0.06,0.76
			c0.02,0.15,0.07,0.28,0.07,0.45c0,0.01,0,0.02,0,0.03c-0.01,0.17-0.04,0.32-0.04,0.47c0,0.15,0.01,0.29,0.01,0.44
			c0,0.1,0,0.2-0.01,0.3c-0.01,0.06-0.01,0.13-0.01,0.19c0,0.16,0.02,0.32,0.02,0.5l-0.04,1.55l0,1.3l-1.44,0.06l-1.62-0.05
			c-0.01,0-0.02,0-0.03,0c-0.11,0-0.21-0.04-0.27-0.04c-0.01,0-0.01,0-0.02,0c-0.04,0.01-0.07,0.01-0.1,0.01
			c-0.07,0-0.12-0.01-0.18-0.01c-0.01,0-0.01,0-0.02,0c-0.16,0.01-0.25,0.04-0.33,0.11l-0.02,0.02h-0.02l-0.2,0l-0.01,0
			c-0.07-0.02-0.14-0.03-0.23-0.03c-0.2,0-0.42,0.05-0.63,0.05c-0.01,0-0.03,0-0.05,0c-0.04,0-0.07-0.01-0.08-0.02l0,0h-0.02
			c-0.01,0-0.02,0-0.02,0l-0.01,0l-0.01,0c-0.06-0.03-0.16-0.05-0.27-0.05c-0.07,0-0.13,0.01-0.18,0.02l-0.01,0l-0.25-0.02v-0.52
			l-0.05-0.96l0.01-0.49l0.05-0.01c0.41-0.1,0.8-0.24,1.16-0.4l0.01-0.01l0.02-0.01c0,0,0.01,0,0.03-0.01
			c0.07-0.01,0.19-0.05,0.2-0.08c0.06-0.09,0.19-0.25,0.26-0.31c0.08-0.07,0.27-0.23,0.4-0.27c0.41-0.13,0.56-0.6,0.84-1.02
			c0.28-0.44,0.32-0.83,0.5-1.35c0.05-0.17,0.07-0.27,0.07-0.36c0-0.08-0.02-0.16-0.06-0.26l-0.01-0.01l0-0.01c0-0.02,0-0.04,0-0.05
			c0-0.06-0.02-0.23-0.02-0.24l-0.01-0.01l0-0.01c0-0.02,0-0.05,0-0.08c0-0.22-0.05-0.61-0.06-0.69l-0.02-0.01l0.01-0.04
			c0.01-0.02,0.01-0.05,0.01-0.08c0-0.14-0.06-0.34-0.09-0.45c-0.07-0.17-0.05-0.16-0.11-0.3c-0.1-0.2-0.12-0.27-0.16-0.41
			c-0.03-0.1-0.39-0.51-0.67-0.66l-0.13-0.09L71.9,56.93z M69.01,61.63c-0.19,0.07-0.32,0.17-0.53,0.23
			c-0.08,0.02-0.21,0.03-0.24,0.06c-0.05,0.04-0.1,0.04-0.14,0.04c-0.04,0-0.07,0-0.1,0c-0.04,0-0.07,0.01-0.08,0.02l-0.02,0.01
			h-0.03c-0.12,0-0.32-0.02-0.32-0.02l-0.01,0l-0.22-0.08l-0.01-0.01c-0.02-0.03-0.26-0.07-0.33-0.09c-0.12-0.03-0.18-0.11-0.3-0.17
			c-0.02-0.01-0.05-0.01-0.08-0.01h-0.04c-0.06,0-0.15-0.01-0.2-0.11l-0.01-0.01v0c0-0.01-0.01-0.01-0.02-0.02
			c-0.02-0.02-0.06-0.04-0.1-0.07c-0.08-0.06-0.16-0.11-0.2-0.17c-0.25-0.42-0.16-0.78-0.34-1.18c-0.02-0.05-0.03-0.08-0.03-0.12
			c0-0.04,0.01-0.06,0.01-0.1c0-0.01,0-0.03,0-0.05c0-0.04-0.01-0.07-0.01-0.1c0-0.14,0.04-0.2,0.1-0.31
			c0.03-0.07,0.05-0.17,0.07-0.31c0.02-0.15,0.06-0.37,0.15-0.51c0.14-0.21,0.3-0.31,0.43-0.47c0.18-0.21,0.42-0.3,0.62-0.43
			c0.08-0.05,0.1-0.08,0.21-0.1c0.1-0.02,0.24-0.06,0.37-0.07c0.15-0.01,0.3-0.04,0.46-0.04c0.08,0,0.16,0.01,0.24,0.03
			c0.52,0.16,0.82,0.13,1.26,0.62c0.17,0.19,0.33,0.47,0.47,0.66c0.09,0.14,0.08,0.36,0.11,0.48c0.06,0.15,0.09,0.24,0.1,0.4
			c0,0.03,0,0.06,0,0.08c0,0.16-0.04,0.22-0.07,0.4c-0.04,0.2-0.11,0.4-0.2,0.57c-0.06,0.12-0.17,0.31-0.29,0.41
			c-0.05,0.03-0.07,0.1-0.15,0.17c-0.04,0.03-0.09,0.11-0.14,0.16C69.26,61.6,69.13,61.63,69.01,61.63z"/>
		<path class="st25" d="M59.54,58.52c0.21-0.11,0.31-0.26,0.31-0.47c0-0.04,0-0.08-0.01-0.13l-0.12-0.28v-0.42
			c0.01-0.1,0.03-0.2,0.05-0.28c0.01-0.03,0.01-0.09,0.01-0.16c0-0.27-0.06-0.76-0.06-1.04c0-0.08,0-0.14,0.02-0.19
			c0.02-0.08,0.01-0.18,0.04-0.29c0.02-0.09,0.03-0.29,0.05-0.46c0-0.02,0-0.04,0-0.05c0-0.1-0.03-0.2-0.03-0.32c0,0,0-0.01,0-0.01
			c0-0.05,0.01-0.09,0.03-0.13c0-0.01,0-0.02,0-0.02c-0.01-0.01-0.02-0.02-0.04-0.05l0-0.01l-0.14-0.34l0-0.02c0,0,0,0,0-0.01
			c0.01-0.02-0.08-0.1-0.18-0.17l-0.01-0.01l-0.01-0.01c-0.03-0.04-0.07-0.09-0.1-0.13l-0.01-0.01l0-0.01l0-0.01l0,0
			c-0.01-0.01-0.02-0.02-0.05-0.04c-0.03-0.03-0.06-0.05-0.09-0.08l0,0c-0.24-0.2-0.55-0.32-0.88-0.32h-0.47l-0.01,0
			c-0.15-0.03-0.44-0.06-0.66-0.06c-0.06,0-0.11,0-0.15,0.01l-0.75,0.05c-0.03,0-0.06,0-0.09,0h-0.47
			c-0.31-0.01-0.63-0.05-0.92-0.05c-0.05,0-0.11,0-0.16,0c-0.47,0.02-1.16,0.08-1.68,0.08c-0.06,0-0.12,0-0.17,0
			c-0.16-0.01-0.39-0.05-0.57-0.05c-0.05,0-0.1,0-0.14,0.01c-0.08,0.01-0.17,0.07-0.3,0.09c-0.08,0.01-0.15,0.02-0.23,0.02
			l-0.38-0.05l-0.01-0.01c0,0-0.01,0-0.02-0.01C51.06,53.06,50.99,53,50.92,53c-0.01,0-0.03,0-0.04,0.01
			c-0.29,0.08-0.38,0.02-0.61,0.08c-0.16,0.04-0.27,0.06-0.36,0.06c-0.16,0-0.27-0.04-0.54-0.06c-0.1-0.01-0.19-0.01-0.29-0.01
			c-0.26,0-0.53,0.01-0.79,0.01c-0.14,0-0.27,0-0.41-0.01l-0.18,0l-0.01,0c0,0,0,0-0.01,0H46.9l0,0c-0.04,0-0.31,0.01-0.45,0.2
			c-0.14,0.17-0.2,0.52-0.2,0.89c0,0.37,0.06,0.72,0.2,0.89c0.11,0.14,0.27,0.18,0.37,0.2l0.01,0h0c0.01,0,0.02,0,0.03,0
			c0.35,0.03,0.84,0.13,1.23,0.13c0.13,0,0.25-0.01,0.35-0.04c0.44-0.11,0.86-0.11,1.32-0.13c0.08,0,0.14,0,0.2,0
			c0.31,0,0.42,0.04,0.73,0.04c0.06,0,0.12,0,0.19,0c0.13-0.01,0.17-0.01,0.21-0.01c0.03,0,0.06,0,0.15,0.01c0.01,0,0.03,0,0.04,0
			c0.05,0,0.13-0.01,0.2-0.01c0.04,0,0.07,0,0.11,0.01l0.02,0.01l0,0c0,0,0,0,0,0c0.02,0,0.04,0,0.08,0c0.17,0,0.45-0.03,0.49-0.03
			c0.11,0,0.2,0,0.29,0c0.07,0,0.15,0,0.25,0.01c0.11,0.01,0.22,0.03,0.32,0.03c0.05,0,0.09,0,0.13-0.01
			c0.02-0.01,0.04-0.01,0.05-0.01c0.13,0.01,0.23,0.09,0.28,0.09c0,0,0.01,0,0.01,0c0.11-0.02,0.18-0.03,0.23-0.03
			c0.09,0,0.11,0.02,0.16,0.02c0.01,0,0.02,0,0.03,0c0.26-0.02,0.54-0.07,0.85-0.07c0.02,0,0.04,0,0.05,0c0.12,0,0.24,0,0.36,0
			c0.29,0,0.61-0.01,0.95-0.03l0.01,0l0.45,0.06c0.1,0.01,0.18,0.05,0.25,0.1l0.03,0.02l0,0.03c0.01,0.38,0.01,0.97,0.01,1.1
			c0,0.03,0.05,0.15,0.05,0.24c0,0.02,0,0.04-0.01,0.07c-0.02,0.04,0,0.07-0.06,0.17c-0.03,0.05-0.05,0.16-0.05,0.26
			c0,0.03,0,0.05,0,0.07c0.01,0.13,0.03,0.25,0.03,0.38c0,0.02,0,0.03,0,0.05c0,0.04-0.01,0.08-0.01,0.11c0,0.08,0.01,0.1,0.07,0.19
			c0.07,0.11,0.02,0.18,0.05,0.21c0.03,0.05,0.06,0.12,0.09,0.15c0.02,0.03,0.09,0.07,0.16,0.1c0.22,0.14,0.64,0.2,1.1,0.2
			c0.46,0,0.89-0.06,1.1-0.2c0,0,0,0,0.01-0.01l0.06-0.04L59.54,58.52z"/>
		<path class="st25" d="M61.11,60.06L61.11,60.06c-0.03,0-0.06-0.01-0.07-0.01h-0.03l-1.39-0.09c-0.01,0-0.02,0-0.03,0
			c-0.11,0-0.21-0.04-0.27-0.04c-0.01,0-0.01,0-0.02,0c-0.04,0.01-0.07,0.01-0.1,0.01c-0.07,0-0.12-0.01-0.18-0.01
			c-0.01,0-0.01,0-0.02,0c-0.16,0.01-0.25,0.04-0.33,0.11l-0.02,0.02l-0.02,0l-0.2,0l-0.01,0c-0.07-0.02-0.14-0.03-0.23-0.03
			c-0.2,0-0.42,0.05-0.63,0.05c-0.02,0-0.03,0-0.05,0c-0.04,0-0.07-0.01-0.08-0.02l-0.01,0c-0.01,0-0.04,0.01-0.06,0.01
			c-0.03,0.01-0.03,0.01-0.06,0.02c-0.01,0-0.01,0-0.01,0c-0.1,0-0.23-0.07-0.3-0.06c-0.02,0-0.03,0-0.03,0.01l-0.02,0.01
			l-1.19,0.02h-1.7l-1.11,0l-0.01-0.01c-0.18-0.09-0.79-0.11-1.03-0.12c-0.12-0.01-0.23-0.01-0.34-0.01c-0.43,0-0.82,0.04-1.32,0.08
			c-0.21,0.01-0.74,0-0.93,0.04c-0.22,0.05-0.19,0.03-0.38,0.12c-0.1,0.05-0.18,0.07-0.26,0.07c-0.22-0.01-0.36-0.14-0.6-0.16
			c-0.24-0.03-0.43-0.09-0.64-0.09c-0.11,0-0.24,0.02-0.39,0.07l-0.01,0l-0.66-0.02c-0.01,0-0.03,0-0.04,0
			c-0.25,0-0.48-0.1-0.69-0.14c-0.06-0.01-0.11-0.01-0.15-0.01c-0.15,0-0.21,0.06-0.41,0.12c-0.08,0.03-0.17,0.04-0.25,0.04
			c-0.18,0-0.35-0.04-0.44-0.04c-0.03,0-0.04,0-0.04,0.01l-0.01,0.01l-0.02,0c-0.08,0.01-0.12,0.03-0.14,0.04l-0.01,0l-0.01,0
			c-0.1,0.02-0.24,0.07-0.33,0.19c-0.13,0.17-0.2,0.52-0.2,0.9c0,0.37,0.06,0.72,0.2,0.89c0.14,0.19,0.41,0.2,0.45,0.2
			c0.01,0,0.01,0,0.01,0h0.07l0.01,0c0.03,0.01,0.08,0.02,0.13,0.02c0.11,0,0.26-0.03,0.35-0.04c0.07-0.01,0.13-0.01,0.2-0.01
			c0.14,0,0.27,0.01,0.43,0.02l2.01-0.01l0.02,0.01h3.69l0,0.06c0,0.01,0,0.01,0,0.02c0,0.15,0.02,0.35,0.03,0.45
			c0,0.02,0,0.04,0,0.06c0,0.17-0.07,0.47-0.07,0.62c0,0.01,0,0.03,0,0.04c0.01,0.12,0.06,0.38,0.06,0.51c0,0.04,0,0.05,0,0.07
			c0,0.01-0.01,0.02-0.02,0.1c-0.01,0.07-0.03,0.28-0.03,0.41l0,0.06l-0.06,0c0,0-0.01,0-0.01,0c-0.04,0-0.08,0.02-0.12,0.05
			l-0.01,0.01l-0.73,0c-0.17-0.02-0.34-0.03-0.51-0.03c-0.11,0-0.22,0-0.34,0c-0.09,0-0.19,0-0.28-0.01
			c-0.19-0.01-0.49-0.01-0.79-0.01c-0.34,0-0.69,0-0.89,0.02c-0.01,0-0.02,0-0.02,0c-0.22,0-0.4-0.09-0.58-0.09
			c-0.01,0-0.02,0-0.03,0c-0.07,0-0.14,0.05-0.24,0.09l-0.01,0l-0.01,0c-0.03,0-0.07-0.01-0.1-0.01c-0.15,0-0.27,0.04-0.38,0.12
			c-0.05,0.03-0.09,0.07-0.13,0.12c-0.14,0.17-0.2,0.52-0.2,0.89c0,0.35,0.06,0.67,0.17,0.85c0.01,0.02,0.02,0.03,0.03,0.04
			c0.14,0.19,0.41,0.2,0.45,0.2c0.01,0,0.01,0,0.01,0h0.07l0.01,0l0.01,0c0.01,0,0.01,0,0.02,0c0.01,0,0.04,0,0.07-0.01h0.03
			c0.05,0.01,0.09,0.03,0.09,0.03c0,0,0.01,0,0.03-0.01c0.03-0.01,0.06-0.02,0.09-0.03l0.01,0h0.46c0.02-0.01,0.05-0.02,0.07-0.03
			l0.01,0h0.01c0.41,0.01,1.06,0.03,1.36,0.06c0.13,0.01,0.26,0.02,0.39,0.01c0.48,0,0.96-0.06,1.45-0.06c0.25,0,0.5,0.02,0.75,0.06
			c0.12,0.02,0.25,0.07,0.36,0.07c0.02,0,0.04,0,0.07-0.01c0.15-0.02,0.3-0.12,0.49-0.15c0.09-0.01,0.2-0.01,0.31-0.01
			c0.08,0,0.16,0,0.24,0c0.22,0.02,0.47,0.02,0.69,0.07c0.19,0.04,0.35,0.08,0.5,0.08c0.04,0,0.08,0,0.13-0.01
			c0.05-0.01,0.12-0.01,0.19-0.01c0.18,0,0.42,0.02,0.64,0.02c0.3,0,0.57-0.05,0.62-0.16l0.03-0.05l0.05,0.03
			c0.16,0.09,0.44,0.1,0.71,0.11c0.25,0.02,0.49,0.04,0.62,0.21l0.04-0.01v0.08c0,0.09,0,0.2,0,0.31v0.04
			c-0.01,0.59-0.02,1.37-0.02,1.94c0,0.35,0,0.62,0.02,0.73l0.02,0.46l-0.01,0.02c0,0-0.01,0.01-0.01,0.03
			c0,0.04,0.02,0.11,0.02,0.17c0,0.01,0,0.02,0,0.03c-0.01,0.05-0.01,0.1-0.01,0.14c0,0.06,0,0.11,0,0.17
			c0,0.08-0.01,0.17-0.07,0.28c-0.01,0.05-0.01,0.1-0.01,0.15c0,0.09,0.01,0.17,0.04,0.25c0.03,0.1,0.08,0.23,0.23,0.32
			c0.22,0.14,0.65,0.2,1.11,0.2c0.4,0,0.77-0.05,1-0.15l0.05-0.02v0c0.25-0.11,0.36-0.26,0.36-0.47c0-0.05-0.01-0.1-0.02-0.16
			c-0.05-0.31-0.08-0.46-0.11-0.8c-0.01-0.1-0.01-0.24-0.01-0.39c0-0.41,0.03-0.95,0.03-1.13c0-0.28,0.02-1.88,0.06-2.16
			c0.01-0.04,0.01-0.09,0.01-0.14c0-0.18-0.03-0.39-0.03-0.6c0-0.08,0-0.16,0.02-0.23v-0.01l0-0.01c0.03-0.08,0.05-0.15,0.05-0.24
			c0-0.23-0.13-0.5-0.34-0.77c-0.1-0.14-0.13-0.17-0.15-0.18c-0.02-0.01-0.09-0.02-0.26-0.1c-0.06-0.03-0.12-0.06-0.19-0.09
			c0,0-0.01,0-0.01-0.01l-0.02-0.01c0,0,0,0-0.01,0l-0.01,0c-0.14-0.04-0.28-0.07-0.43-0.07h-4.15l-0.02-0.04
			c-0.1-0.23-0.08-0.64-0.09-0.72c0-0.23,0.01-0.27,0.03-0.45c0-0.05,0.01-0.09,0.01-0.14c0-0.22-0.03-0.46-0.03-0.67
			c0-0.14,0.01-0.26,0.06-0.38l0.02-0.04h3.15c0.01,0,0.02,0,0.03-0.01l0.01,0h0.01c0.02,0,0.04,0,0.07,0c0,0,0.01,0,0.01,0
			c0,0,0.43,0.02,0.46,0.02c0.01,0,0.03,0,0.04,0c0.1,0,0.2-0.01,0.32-0.01c0.05,0,0.1,0,0.16,0.01c0.02,0.01,0.04,0.01,0.06,0.01
			c0.07,0,0.13-0.04,0.24-0.04c0.03,0,0.06,0,0.09,0.01c0.05,0.01,0.09,0.02,0.13,0.02c0.03,0,0.05,0,0.08-0.02
			c0.03-0.01,0.06-0.01,0.09-0.01c0.11,0,0.24,0.03,0.3,0.03c0,0,0.01,0,0.01,0c0.19-0.01,0.38-0.02,0.57-0.03
			c0.13-0.01,0.24-0.01,0.34-0.01c0.1,0,0.2,0.01,0.31,0.02c0.07,0.01,0.16,0.02,0.24,0.02c0.1,0,0.19-0.01,0.23-0.04
			c0.13-0.08,0.26-0.06,0.29-0.11c0.14-0.2,0.14-0.25,0.25-0.42c0.01-0.01,0.01-0.03,0.01-0.06c0-0.02,0-0.05,0-0.09
			c0,0,0-0.01,0-0.02c0-0.02,0.01-0.05,0.01-0.08c0.01-0.09,0.01-0.2,0.01-0.3c0-0.38-0.06-0.72-0.2-0.9
			C61.38,60.11,61.21,60.07,61.11,60.06z"/>
	</g>
</g>
<g>
	<path class="st23" d="M62,9.92C33.24,9.92,9.92,33.24,9.92,62c0,28.76,23.32,52.08,52.08,52.08c28.76,0,52.08-23.31,52.08-52.08
		C114.08,33.24,90.77,9.92,62,9.92z"/>
	<path class="st24" d="M62,112.08c-27.65,0-50.08-22.42-50.08-50.07c0-27.66,22.42-50.07,50.08-50.07
		c27.66,0,50.08,22.42,50.08,50.07C112.08,89.66,89.66,112.08,62,112.08z"/>
	<path class="st25" d="M103.64,48.25c-1.06-3.21-3.91-5.48-7.29-5.82c-0.63-2.9-2.8-4.4-3.45-4.8c-2.43-1.58-5.09-1.24-5.69-1.13
		c-0.36-0.44-1.56-1.72-3.56-1.95c-0.62-0.06-1.3,0.01-1.96,0.22c-0.04,0.01-0.07,0.02-0.11,0.04c0-0.03,0-0.07,0-0.1
		c0-0.69-0.13-1.36-0.39-1.93c-0.83-1.83-2.42-2.58-2.95-2.79c-0.09-0.6-0.58-3.24-2.85-5.07c-0.57-0.5-2.67-2.08-5.62-1.79
		C68.41,20.03,65.37,18.02,62,18c-3.37,0.01-6.42,2.03-7.79,5.14c-2.95-0.29-5.05,1.3-5.63,1.8c-2.26,1.83-2.75,4.47-2.84,5.07
		c-0.53,0.21-2.12,0.96-2.95,2.79c-0.26,0.57-0.39,1.24-0.39,1.93c0,0.04,0,0.08,0,0.11c-0.03-0.01-0.06-0.02-0.09-0.03
		c-0.66-0.21-1.33-0.29-1.95-0.22c-2.01,0.22-3.21,1.51-3.57,1.95c-0.6-0.11-3.26-0.45-5.7,1.13c-0.65,0.39-2.81,1.9-3.45,4.79
		c-3.37,0.34-6.23,2.62-7.29,5.82c-1.03,3.21-0.06,6.73,2.48,8.99c-1.19,2.72-0.32,5.21-0.03,5.91c1.04,2.71,3.4,4,3.94,4.26
		C26.78,68,27,69.74,28.49,71.1c0.46,0.42,1.06,0.76,1.71,0.97c0.03,0.01,0.07,0.02,0.11,0.03c-0.02,0.02-0.04,0.05-0.06,0.08
		c-0.41,0.56-0.69,1.18-0.82,1.79c-0.4,1.97,0.44,3.51,0.75,3.99c-0.29,0.54-1.44,2.96-0.68,5.77c0.17,0.74,0.93,3.26,3.49,4.76
		c-0.72,3.32,0.56,6.74,3.28,8.73c2.74,1.97,6.38,2.13,9.32,0.42c2.22,1.97,4.85,1.92,5.61,1.85c2.9-0.15,4.85-1.99,5.27-2.43
		c0.55,0.15,2.27,0.47,4.03-0.52c0.54-0.31,1.05-0.77,1.45-1.33c0.02-0.03,0.04-0.06,0.06-0.09c0.02,0.03,0.04,0.06,0.06,0.08
		c0.41,0.56,0.91,1.02,1.45,1.33c1.75,1,3.47,0.67,4.03,0.52c0.42,0.44,2.37,2.28,5.28,2.43c0.75,0.06,3.39,0.11,5.6-1.85
		c2.93,1.71,6.58,1.55,9.31-0.42c2.72-1.99,4-5.41,3.28-8.73c2.56-1.5,3.32-4.02,3.49-4.77c0.75-2.8-0.4-5.22-0.69-5.77
		c0.31-0.47,1.16-2.01,0.75-3.99c-0.13-0.61-0.41-1.23-0.82-1.79c-0.02-0.03-0.04-0.06-0.07-0.09c0.03-0.01,0.06-0.02,0.09-0.03
		c0.66-0.21,1.25-0.55,1.71-0.97c1.49-1.36,1.71-3.1,1.74-3.67c0.55-0.27,2.9-1.55,3.95-4.27c0.3-0.7,1.16-3.19-0.03-5.9
		C103.7,54.98,104.67,51.46,103.64,48.25z"/>
	<path class="st26" d="M62,81.47c-10.75,0-19.47-8.72-19.47-19.47c0-10.76,8.72-19.47,19.47-19.47c10.75,0,19.47,8.71,19.47,19.47
		C81.47,72.76,72.76,81.47,62,81.47z"/>
	<g>
		<path class="st27" d="M64.11,40.14c1.33-6.61,2.83-14.12,3.1-15.46c-0.34-2.27-2.61-4.16-5.21-4.18c-2.55,0.03-4.83,1.89-5.2,4.15
			c0.28,1.42,1.79,8.9,3.11,15.49c0.69-0.07,1.39-0.1,2.09-0.1C62.71,40.03,63.41,40.07,64.11,40.14z"/>
		<path class="st27" d="M55.16,25.93c-0.51-0.17-1.04-0.28-1.59-0.28c-1.38,0-2.64,0.51-3.54,1.43c-0.76,0.77-1.19,1.78-1.25,2.86
			c0.94,1.57,4,6.68,6.65,11.1c0.86-0.27,1.74-0.48,2.64-0.64C56.95,34.87,55.59,28.06,55.16,25.93z"/>
		<path class="st27" d="M75.22,29.93c-0.06-1.08-0.49-2.09-1.25-2.86c-0.91-0.92-2.17-1.43-3.54-1.43c-0.55,0-1.08,0.1-1.59,0.28
			c-0.43,2.14-1.8,8.94-2.9,14.47c0.9,0.16,1.78,0.37,2.64,0.64C71.21,36.62,74.28,31.5,75.22,29.93z"/>
		<path class="st28" d="M49.83,43.72c1.2-0.8,2.48-1.48,3.82-2.03c-2.76-4.61-5.39-9-5.66-9.46c-0.04,0-0.07,0-0.07,0
			c-1.61,0-3.34,1.65-3.34,3.26c0,0.6,0.19,1.19,0.58,1.75L49.83,43.72z"/>
		<path class="st28" d="M74.18,43.72c-1.2-0.8-2.47-1.48-3.82-2.03c2.76-4.61,5.38-9,5.66-9.46c0.05,0,0.08,0,0.08,0
			c1.61,0,3.34,1.65,3.34,3.26c0,0.6-0.19,1.19-0.58,1.75L74.18,43.72z"/>
	</g>
	<g>
		<path class="st27" d="M41.86,53.24c-5.88-3.3-12.55-7.06-13.75-7.73c-2.26-0.38-4.76,1.2-5.59,3.67c-0.76,2.43,0.3,5.17,2.34,6.22
			c1.44,0.17,9.02,1.05,15.69,1.83c0.15-0.67,0.33-1.35,0.55-2.02C41.33,54.54,41.58,53.88,41.86,53.24z"/>
		<path class="st27" d="M25.58,57.36c-0.33,0.43-0.58,0.91-0.75,1.42c-0.43,1.31-0.33,2.67,0.26,3.81c0.5,0.96,1.32,1.68,2.33,2.07
			c1.78-0.4,7.6-1.74,12.61-2.89c0.01-0.9,0.08-1.8,0.2-2.7C34.63,58.42,27.74,57.61,25.58,57.36z"/>
		<path class="st27" d="M35.58,39.52c-1.04-0.28-2.14-0.18-3.1,0.3c-1.16,0.59-2.03,1.62-2.45,2.93c-0.17,0.52-0.24,1.06-0.23,1.6
			c1.9,1.07,7.95,4.47,12.86,7.23c0.43-0.81,0.91-1.58,1.43-2.31C40.71,45.39,36.78,40.9,35.58,39.52z"/>
		<path class="st28" d="M40.85,67.93c-0.39-1.38-0.64-2.81-0.75-4.26c-5.24,1.2-10.23,2.34-10.74,2.46
			c-0.02,0.04-0.03,0.07-0.03,0.07c-0.5,1.53,0.54,3.69,2.07,4.19c0.57,0.18,1.19,0.18,1.84-0.01L40.85,67.93z"/>
		<path class="st28" d="M48.38,44.77c-1.13,0.89-2.17,1.89-3.11,3c-3.53-4.05-6.9-7.9-7.25-8.3c0.01-0.04,0.02-0.07,0.02-0.07
			c0.5-1.53,2.61-2.67,4.13-2.17c0.57,0.18,1.07,0.55,1.48,1.09L48.38,44.77z"/>
	</g>
	<g>
		<path class="st27" d="M83.45,57.25c6.7-0.78,14.31-1.67,15.66-1.83c2.05-1.02,3.14-3.77,2.37-6.25c-0.81-2.42-3.28-4-5.56-3.66
			c-1.26,0.71-7.91,4.45-13.77,7.74c0.27,0.64,0.53,1.29,0.74,1.96C83.11,55.89,83.29,56.56,83.45,57.25z"/>
		<path class="st27" d="M94.19,44.35c0.01-0.54-0.06-1.08-0.23-1.6c-0.42-1.31-1.3-2.35-2.45-2.93c-0.97-0.49-2.06-0.59-3.1-0.31
			c-1.2,1.38-5.12,5.87-8.51,9.75c0.52,0.73,1,1.51,1.43,2.31C86.24,48.82,92.29,45.42,94.19,44.35z"/>
		<path class="st27" d="M96.58,64.66c1.01-0.39,1.83-1.11,2.33-2.07c0.59-1.15,0.69-2.5,0.26-3.81c-0.17-0.52-0.43-0.99-0.75-1.43
			c-2.17,0.25-9.06,1.06-14.65,1.7c0.12,0.91,0.19,1.81,0.21,2.71C88.99,62.92,94.8,64.26,96.58,64.66z"/>
		<path class="st28" d="M75.62,44.77c1.13,0.89,2.17,1.89,3.12,3c3.53-4.05,6.9-7.9,7.25-8.31c-0.01-0.04-0.02-0.07-0.02-0.07
			c-0.5-1.53-2.61-2.67-4.13-2.17c-0.57,0.18-1.07,0.55-1.48,1.09L75.62,44.77z"/>
		<path class="st28" d="M83.15,67.93c0.39-1.38,0.65-2.81,0.75-4.26c5.24,1.2,10.23,2.34,10.75,2.46c0.01,0.04,0.02,0.07,0.02,0.07
			c0.5,1.53-0.54,3.69-2.07,4.19c-0.57,0.18-1.19,0.18-1.84-0.01L83.15,67.93z"/>
	</g>
	<g>
		<path class="st27" d="M47.44,78.45c-4.96,4.57-10.59,9.76-11.6,10.68c-1.06,2.04-0.33,4.9,1.76,6.45
			c2.08,1.48,5.01,1.31,6.64-0.31c0.61-1.31,3.79-8.25,6.59-14.36c-0.6-0.35-1.18-0.73-1.75-1.15
			C48.51,79.35,47.97,78.91,47.44,78.45z"/>
		<path class="st27" d="M46.33,95.21c0.31,0.45,0.68,0.84,1.12,1.16c1.11,0.81,2.43,1.14,3.71,0.93c1.06-0.18,2.01-0.73,2.69-1.58
			c0.16-1.82,0.69-7.76,1.15-12.89c-0.86-0.29-1.69-0.63-2.51-1.03C50.13,86.92,47.24,93.22,46.33,95.21z"/>
		<path class="st27" d="M32.46,80.17c-0.59,0.91-0.83,1.98-0.67,3.04c0.2,1.28,0.92,2.43,2.03,3.24c0.44,0.32,0.93,0.55,1.45,0.71
			c1.61-1.48,6.71-6.18,10.85-10c-0.63-0.66-1.22-1.35-1.76-2.07C39.62,77.12,34.13,79.46,32.46,80.17z"/>
		<path class="st28" d="M61.1,83.95c-1.43-0.06-2.87-0.26-4.28-0.6c-0.48,5.35-0.94,10.45-0.98,10.98c0.03,0.03,0.06,0.05,0.06,0.05
			c1.3,0.94,3.68,0.63,4.62-0.67c0.35-0.48,0.54-1.07,0.56-1.75L61.1,83.95z"/>
		<path class="st28" d="M41.4,69.63c0.5,1.35,1.13,2.65,1.9,3.89c-4.94,2.11-9.65,4.12-10.14,4.33c-0.04-0.03-0.07-0.05-0.07-0.05
			c-1.3-0.94-1.73-3.3-0.79-4.6c0.35-0.48,0.85-0.85,1.49-1.07L41.4,69.63z"/>
	</g>
	<g>
		<path class="st27" d="M73.15,80.93c2.81,6.13,6.01,13.09,6.58,14.33c1.61,1.64,4.56,1.83,6.68,0.32c2.05-1.52,2.79-4.36,1.76-6.41
			c-1.07-0.98-6.68-6.15-11.62-10.7c-0.52,0.46-1.06,0.9-1.63,1.31C74.34,80.19,73.75,80.57,73.15,80.93z"/>
		<path class="st27" d="M88.74,87.16c0.52-0.16,1.01-0.39,1.45-0.71c1.11-0.81,1.84-1.96,2.03-3.24c0.16-1.07-0.07-2.14-0.67-3.05
			c-1.68-0.71-7.17-3.05-11.9-5.07c-0.53,0.72-1.12,1.41-1.75,2.07C82.03,80.98,87.14,85.68,88.74,87.16z"/>
		<path class="st27" d="M70.16,95.71c0.68,0.84,1.62,1.4,2.69,1.58c1.28,0.21,2.59-0.12,3.71-0.93c0.44-0.32,0.81-0.71,1.12-1.16
			c-0.91-1.98-3.8-8.29-6.15-13.41c-0.82,0.39-1.66,0.74-2.51,1.03C69.46,87.95,69.99,93.9,70.16,95.71z"/>
		<path class="st28" d="M82.59,69.64c-0.5,1.34-1.13,2.65-1.89,3.89c4.94,2.1,9.65,4.12,10.14,4.33c0.04-0.03,0.06-0.05,0.06-0.05
			c1.3-0.94,1.74-3.3,0.79-4.6c-0.35-0.48-0.85-0.84-1.49-1.07L82.59,69.64z"/>
		<path class="st28" d="M62.89,83.95c1.44-0.06,2.87-0.26,4.29-0.6c0.48,5.35,0.94,10.45,0.98,10.98c-0.03,0.02-0.06,0.04-0.06,0.04
			c-1.3,0.94-3.68,0.63-4.62-0.67c-0.35-0.48-0.54-1.07-0.56-1.75L62.89,83.95z"/>
	</g>
	<g>
		<path class="st25" d="M71.9,56.93c0.23,0,0.5-0.03,0.7-0.04c0.03,0,0.05,0,0.07,0c0.05,0,0.13,0.03,0.14,0.03c0,0,0,0,0,0
			c0,0,0,0,0.01,0c0.01,0,0.02-0.01,0.03-0.02c0.02-0.01,0.05-0.02,0.06-0.03c0.01,0-0.01,0,0.03-0.01c0,0,0.01,0,0.02,0
			c0.05,0,0.14,0.01,0.25,0.02l0.02,0l0.01,0.01c0.02,0,0.05,0,0.09-0.01c0.02,0,0.04,0,0.06,0c0.09,0,0.18-0.01,0.22-0.02
			c0,0,0.03-0.02,0.08-0.06c0.04-0.04,0.09-0.1,0.13-0.19l0,0l0.01-0.02c0.09-0.19,0.14-0.48,0.14-0.79c0-0.38-0.06-0.72-0.2-0.89
			c0,0,0,0-0.01-0.02c-0.03-0.05-0.11-0.11-0.2-0.17c-0.22-0.02-0.43-0.04-0.63-0.05c-0.17,0-0.38-0.01-0.57-0.01
			c-0.16,0-0.33,0.01-0.46,0.03l-0.01,0h-0.01c-0.16-0.01-0.31-0.01-0.45-0.01c-0.17,0-0.31,0-0.42,0.01
			c-0.11,0-0.18,0.01-0.17,0.01c-0.19,0.05-0.42,0.06-0.65,0.06c-0.36,0-0.71-0.04-0.84-0.05l-0.05-0.01v-0.17l0.01-0.01
			c0.03-0.05,0.04-0.11,0.05-0.16c0-0.01,0-0.01,0-0.02c0-0.12-0.04-0.26-0.06-0.41v-0.44c0-0.09,0.01-0.19,0.01-0.27
			c0-0.09-0.01-0.16-0.01-0.18c-0.03-0.12-0.02-0.23-0.07-0.28c-0.11-0.06-0.11-0.09-0.2-0.14c-0.05-0.03-0.11-0.07-0.16-0.1
			c0-0.01-0.08-0.02-0.16-0.02c-0.08,0-0.18-0.01-0.27-0.03c-0.02,0-0.03,0-0.05,0c-0.04,0-0.09,0-0.13-0.01l0.01,0.01l-0.11,0
			c-0.07,0-0.14-0.01-0.22-0.01c-0.46,0-0.89,0.06-1.11,0.2c-0.24,0.15-0.25,0.41-0.25,0.45l-0.01,0l0.01,0.01v1.6h-1.05
			c-0.21-0.01-0.41-0.03-0.61-0.03c-0.01,0-0.02,0-0.03,0l-0.39,0.01c-0.01,0-0.01,0-0.01,0c-0.03,0-0.08,0-0.13,0
			c-0.02,0-0.04,0-0.06,0l0,0c-0.04,0-0.11,0.02-0.18,0.02c-0.04,0-0.08,0-0.12-0.03v0c0,0,0,0,0,0h0c-0.01,0-0.01,0-0.02,0
			c-0.02,0-0.04,0-0.05,0c-0.04,0-0.07,0.01-0.1,0.01c-0.03,0-0.06,0-0.08,0c-0.04,0-0.07,0-0.11,0.01
			c-0.06,0.01-0.1,0.02-0.14,0.02c-0.03,0-0.05,0-0.07,0c-0.02,0-0.04,0-0.07,0c-0.13,0.01-0.17,0.01-0.28,0.02
			c-0.06,0.01-0.13,0.01-0.21,0.01c-0.18,0-0.38-0.01-0.48-0.03c-0.03-0.01-0.06-0.01-0.08-0.01c-0.07,0-0.14,0.02-0.22,0.05
			c-0.02,0.01-0.04,0.01-0.06,0.02c-0.01,0-0.01,0.01-0.02,0.01c-0.02,0-0.03,0.02-0.06,0.04c-0.04,0.03-0.07,0.06-0.1,0.09
			c-0.13,0.17-0.2,0.52-0.2,0.89c0,0.33,0.05,0.63,0.15,0.82c0.01,0.02,0.05,0.08,0.05,0.08c0.1,0.11,0.05,0.11,0.22,0.2
			c0.07,0.03,0.11,0.04,0.16,0.04c0.03,0,0.07,0,0.12,0c0.02,0,0.04,0,0.06,0c0.01,0,0.02,0,0.03,0c0.15,0,0.48-0.04,0.69-0.04
			c0.05,0,0.09,0,0.13,0.01c0.01,0,0.02,0,0.03,0c0.08,0,0.24-0.04,0.35-0.05l0.01,0l0.87,0.06L64.41,57
			c-0.09,0.09-0.18,0.19-0.26,0.29c-0.27,0.26-0.52,0.59-0.56,0.69c-0.15,0.36-0.13,0.56-0.27,0.87c-0.11,0.23-0.22,0.5-0.22,0.79h0
			l0,0.01c0,0.01,0,0.01,0,0.02c0,0.21,0.03,0.31,0.08,0.51l0,0.01l0,0.01c0.01,0.22,0.04,0.43,0.08,0.64
			c0.01,0.09,0.02,0.16,0.03,0.26c0.01,0.14-0.01,0.37,0.04,0.46c0.15,0.34,0.3,0.7,0.48,1.01c0.1,0.19,0.29,0.33,0.53,0.49
			c0.21,0.16,0.39,0.41,0.56,0.47c0.21,0.09,0.27,0.2,0.46,0.24c0.07,0.02,0.13,0.03,0.2,0.03l0.01,0l0.01,0.01
			c0.3,0.15,0.62,0.26,0.96,0.35l0.05,0.01v1.33l0.04,0.56l0,0.15l-0.06,0c-0.05,0-0.1,0-0.16,0c-0.06,0-0.12,0-0.17,0
			c-0.06,0.01-0.12,0.03-0.19,0.03c-0.01,0-0.03,0-0.04,0c-0.24,0-0.69-0.09-0.93-0.09c-0.02,0-0.04,0-0.06,0
			c-0.14,0.01-0.26,0.03-0.38,0.03c-0.08,0-0.17-0.01-0.28-0.03c-0.04-0.01-0.09-0.01-0.13-0.01c-0.07,0-0.15,0.01-0.24,0.01
			c-0.03,0-0.07,0-0.1-0.01c-0.28-0.04-0.56-0.04-0.86-0.06l-0.57-0.02c-0.04,0-0.07-0.01-0.11-0.01c-0.21,0-0.37,0.06-0.48,0.16
			l-0.01,0.01l-0.01,0c-0.05,0.03-0.11,0.07-0.15,0.12c-0.14,0.17-0.2,0.52-0.2,0.89c0,0.37,0.06,0.72,0.2,0.89
			c0.14,0.19,0.41,0.2,0.45,0.2c0.01,0,0.01,0,0.01,0h0.02l0.01,0c0.08,0.03,0.18,0.04,0.28,0.04c0.02,0,0.03,0,0.05,0l0.02,0
			l0.02,0.01c0.07,0.06,0.16,0.08,0.26,0.08c0.13,0,0.27-0.03,0.39-0.05c0.32-0.05,0.64-0.11,0.98-0.11c0.19,0,0.37,0.02,0.56,0.07
			c0.02,0.01,0.06,0.01,0.1,0.01c0.09,0,0.21-0.02,0.3-0.02c0.32,0,0.52-0.13,0.82-0.13c0.09,0,0.2,0.01,0.32,0.05l0,0
			c0,0,0.01,0,0.02,0c0.07,0,0.23-0.02,0.33-0.02c0.03,0,0.05,0,0.07,0.01c0.01,0,0.02,0,0.04,0c0.06,0,0.15-0.02,0.23-0.02
			c0.02,0,0.05,0,0.07,0c0.1,0,0.19,0,0.29,0c0.07,0,0.13,0,0.2-0.01c0.08-0.01,0.15-0.01,0.23-0.01c0.3,0,0.6,0.06,0.89,0.06
			c0.01,0,0.01,0,0.01,0c0,0,0,0,0.01,0c0.1,0,0.29,0.03,0.4,0.09c0,0,0,0,0,0c0,0,0.01,0,0.01,0c0.01,0,0.03,0,0.06,0
			c0.02,0,0.04,0,0.06,0c0.02,0,0.03,0,0.04,0c0.02,0,0.04,0,0.07,0.01c0.28,0,0.45-0.03,0.75-0.03c0.27,0,0.45-0.05,0.71-0.05
			c0.03,0,0.05,0,0.08,0h0c0.09,0.01,0.09,0.05,0.12,0.04c0,0,0.01,0,0,0c0.1-0.01,0.24-0.01,0.4-0.01c0.45,0,1,0.02,1.05,0.03
			c0,0,0,0,0,0c0,0,0.01,0,0.02,0.01l0,0c0.02,0.02,0.05,0.03,0.1,0.03c0.13,0,0.33-0.11,0.51-0.11c0.01,0,0.02,0,0.03,0
			c0.12,0.01,1.38,0.09,2.08,0.09c0.03,0,0.06,0,0.08,0l0.06,0v2.87l0,0c0,0.04,0.01,0.3,0.25,0.45c0.22,0.14,0.65,0.2,1.11,0.2
			c0.46,0,0.89-0.06,1.11-0.2c0.24-0.15,0.25-0.41,0.25-0.45v-0.01l0-0.21l-0.01-0.05l-0.01-0.35c-0.02-0.14-0.05-0.28-0.07-0.43
			c-0.01-0.1-0.04-0.22-0.06-0.32c0-0.02-0.01-0.04-0.01-0.07c0-0.18,0.06-0.58,0.06-0.75c0-0.03,0-0.06,0-0.06l0,0
			c-0.01-0.01,0-0.02,0-0.03c0-0.07,0.09-0.45,0.1-0.52c0-0.01,0-0.02,0.01-0.03c0.01-0.02,0.01-0.05,0.01-0.1
			c0-0.24-0.13-0.67-0.17-0.85c-0.02-0.1-0.02-0.15-0.02-0.2c0-0.06,0-0.11,0.01-0.22v-0.03c0-0.09-0.01-0.24-0.01-0.35
			c0-0.05,0-0.09,0-0.12c0.01-0.11,0.01-0.19,0.06-0.29c0.05-0.11,0.05-0.07,0.05-0.16v-0.01c0-0.06-0.04-0.15-0.04-0.25
			c0-0.01,0-0.01,0-0.01c0-0.25,0.01-0.5,0.01-0.75c0-0.28-0.01-0.55-0.03-0.83l-0.01-3.77c0-0.11,0-0.21,0-0.32
			c0-0.3,0.01-0.59,0.03-0.85c0-0.12,0.06-0.25,0.06-0.33c0,0,0-0.01,0-0.02c0-0.03,0-0.06,0-0.1c0-0.21,0.03-0.51,0.03-0.74
			c0-0.03,0-0.05,0-0.07c-0.02-0.17-0.04-0.3-0.04-0.46c0-0.05,0-0.11,0.01-0.17c0.02-0.13,0.02-0.25,0.02-0.38c0-0.07,0-0.13,0-0.2
			l-0.04-0.56c0,0,0-0.01,0-0.01c0-0.07,0.01-0.14,0.03-0.19l0.07-2.05L78,53.82V53.1c0-0.04-0.01-0.3-0.25-0.45
			c-0.22-0.14-0.65-0.2-1.11-0.2c-0.46,0-0.89,0.06-1.11,0.2c-0.24,0.15-0.25,0.41-0.25,0.45c0,0,0,0,0,0.01v2.12l0.05,1.6
			c-0.01,0.15-0.02,0.25-0.02,0.33c0,0.01,0,0.02,0,0.04c0,0.12,0.01,0.18,0.01,0.27c0,0.02,0,0.04,0,0.07
			c-0.01,0.13-0.01,0.27-0.02,0.41c-0.02,0.27-0.02,0.46-0.02,0.73c0,0.02,0,0.03,0,0.05c0,0.19,0.04,0.32,0.04,0.53
			c0,0.03,0,0.06,0,0.1c-0.02,0.31-0.04,0.31-0.06,0.41c-0.03,0.13-0.04,0.25-0.04,0.38c0,0.23,0.03,0.46,0.06,0.76
			c0.02,0.15,0.07,0.28,0.07,0.45c0,0.01,0,0.02,0,0.03c-0.01,0.17-0.04,0.32-0.04,0.47c0,0.15,0.01,0.29,0.01,0.44
			c0,0.1,0,0.2-0.01,0.3c-0.01,0.06-0.01,0.13-0.01,0.19c0,0.16,0.02,0.32,0.02,0.5l-0.04,1.55l0,1.3l-1.44,0.06l-1.62-0.05
			c-0.01,0-0.02,0-0.03,0c-0.11,0-0.21-0.04-0.27-0.04c-0.01,0-0.01,0-0.02,0c-0.04,0.01-0.07,0.01-0.1,0.01
			c-0.07,0-0.12-0.01-0.18-0.01c-0.01,0-0.01,0-0.02,0c-0.16,0.01-0.25,0.04-0.33,0.11l-0.02,0.02h-0.02l-0.2,0l-0.01,0
			c-0.07-0.02-0.14-0.03-0.23-0.03c-0.2,0-0.42,0.05-0.63,0.05c-0.01,0-0.03,0-0.05,0c-0.04,0-0.07-0.01-0.08-0.02l0,0h-0.02
			c-0.01,0-0.02,0-0.02,0l-0.01,0l-0.01,0c-0.06-0.03-0.16-0.05-0.27-0.05c-0.07,0-0.13,0.01-0.18,0.02l-0.01,0l-0.25-0.02v-0.52
			l-0.05-0.96l0.01-0.49l0.05-0.01c0.41-0.1,0.8-0.24,1.16-0.4l0.01-0.01l0.02-0.01c0,0,0.01,0,0.03-0.01
			c0.07-0.01,0.19-0.05,0.2-0.08c0.06-0.09,0.19-0.25,0.26-0.31c0.08-0.07,0.27-0.23,0.4-0.27c0.41-0.13,0.56-0.6,0.84-1.02
			c0.28-0.44,0.32-0.83,0.5-1.35c0.05-0.17,0.07-0.27,0.07-0.36c0-0.08-0.02-0.16-0.06-0.26l-0.01-0.01l0-0.01c0-0.02,0-0.04,0-0.05
			c0-0.06-0.02-0.23-0.02-0.24l-0.01-0.01l0-0.01c0-0.02,0-0.05,0-0.08c0-0.22-0.05-0.61-0.06-0.69l-0.02-0.01l0.01-0.04
			c0.01-0.02,0.01-0.05,0.01-0.08c0-0.14-0.06-0.34-0.09-0.45c-0.07-0.17-0.05-0.16-0.11-0.3c-0.1-0.2-0.12-0.27-0.16-0.41
			c-0.03-0.1-0.39-0.51-0.67-0.66l-0.13-0.09L71.9,56.93z M69.01,61.63c-0.19,0.07-0.32,0.17-0.53,0.23
			c-0.08,0.02-0.21,0.03-0.24,0.06c-0.05,0.04-0.1,0.04-0.14,0.04c-0.04,0-0.07,0-0.1,0c-0.04,0-0.07,0.01-0.08,0.02l-0.02,0.01
			h-0.03c-0.12,0-0.32-0.02-0.32-0.02l-0.01,0l-0.22-0.08l-0.01-0.01c-0.02-0.03-0.26-0.07-0.33-0.09c-0.12-0.03-0.18-0.11-0.3-0.17
			c-0.02-0.01-0.05-0.01-0.08-0.01h-0.04c-0.06,0-0.15-0.01-0.2-0.11l-0.01-0.01v0c0-0.01-0.01-0.01-0.02-0.02
			c-0.02-0.02-0.06-0.04-0.1-0.07c-0.08-0.06-0.16-0.11-0.2-0.17c-0.25-0.42-0.16-0.78-0.34-1.18c-0.02-0.05-0.03-0.08-0.03-0.12
			c0-0.04,0.01-0.06,0.01-0.1c0-0.01,0-0.03,0-0.05c0-0.04-0.01-0.07-0.01-0.1c0-0.14,0.04-0.2,0.1-0.31
			c0.03-0.07,0.05-0.17,0.07-0.31c0.02-0.15,0.06-0.37,0.15-0.51c0.14-0.21,0.3-0.31,0.43-0.47c0.18-0.21,0.42-0.3,0.62-0.43
			c0.08-0.05,0.1-0.08,0.21-0.1c0.1-0.02,0.24-0.06,0.37-0.07c0.15-0.01,0.3-0.04,0.46-0.04c0.08,0,0.16,0.01,0.24,0.03
			c0.52,0.16,0.82,0.13,1.26,0.62c0.17,0.19,0.33,0.47,0.47,0.66c0.09,0.14,0.08,0.36,0.11,0.48c0.06,0.15,0.09,0.24,0.1,0.4
			c0,0.03,0,0.06,0,0.08c0,0.16-0.04,0.22-0.07,0.4c-0.04,0.2-0.11,0.4-0.2,0.57c-0.06,0.12-0.17,0.31-0.29,0.41
			c-0.05,0.03-0.07,0.1-0.15,0.17c-0.04,0.03-0.09,0.11-0.14,0.16C69.26,61.6,69.13,61.63,69.01,61.63z"/>
		<path class="st25" d="M59.54,58.52c0.21-0.11,0.31-0.26,0.31-0.47c0-0.04,0-0.08-0.01-0.13l-0.12-0.28v-0.42
			c0.01-0.1,0.03-0.2,0.05-0.28c0.01-0.03,0.01-0.09,0.01-0.16c0-0.27-0.06-0.76-0.06-1.04c0-0.08,0-0.14,0.02-0.19
			c0.02-0.08,0.01-0.18,0.04-0.29c0.02-0.09,0.03-0.29,0.05-0.46c0-0.02,0-0.04,0-0.05c0-0.1-0.03-0.2-0.03-0.32c0,0,0-0.01,0-0.01
			c0-0.05,0.01-0.09,0.03-0.13c0-0.01,0-0.02,0-0.02c-0.01-0.01-0.02-0.02-0.04-0.05l0-0.01l-0.14-0.34l0-0.02c0,0,0,0,0-0.01
			c0.01-0.02-0.08-0.1-0.18-0.17l-0.01-0.01l-0.01-0.01c-0.03-0.04-0.07-0.09-0.1-0.13l-0.01-0.01l0-0.01l0-0.01l0,0
			c-0.01-0.01-0.02-0.02-0.05-0.04c-0.03-0.03-0.06-0.05-0.09-0.08l0,0c-0.24-0.2-0.55-0.32-0.88-0.32h-0.47l-0.01,0
			c-0.15-0.03-0.44-0.06-0.66-0.06c-0.06,0-0.11,0-0.15,0.01l-0.75,0.05c-0.03,0-0.06,0-0.09,0h-0.47
			c-0.31-0.01-0.63-0.05-0.92-0.05c-0.05,0-0.11,0-0.16,0c-0.47,0.02-1.16,0.08-1.68,0.08c-0.06,0-0.12,0-0.17,0
			c-0.16-0.01-0.39-0.05-0.57-0.05c-0.05,0-0.1,0-0.14,0.01c-0.08,0.01-0.17,0.07-0.3,0.09c-0.08,0.01-0.15,0.02-0.23,0.02
			l-0.38-0.05l-0.01-0.01c0,0-0.01,0-0.02-0.01C51.06,53.06,50.99,53,50.92,53c-0.01,0-0.03,0-0.04,0.01
			c-0.29,0.08-0.38,0.02-0.61,0.08c-0.16,0.04-0.27,0.06-0.36,0.06c-0.16,0-0.27-0.04-0.54-0.06c-0.1-0.01-0.19-0.01-0.29-0.01
			c-0.26,0-0.53,0.01-0.79,0.01c-0.14,0-0.27,0-0.41-0.01l-0.18,0l-0.01,0c0,0,0,0-0.01,0H46.9l0,0c-0.04,0-0.31,0.01-0.45,0.2
			c-0.14,0.17-0.2,0.52-0.2,0.89c0,0.37,0.06,0.72,0.2,0.89c0.11,0.14,0.27,0.18,0.37,0.2l0.01,0h0c0.01,0,0.02,0,0.03,0
			c0.35,0.03,0.84,0.13,1.23,0.13c0.13,0,0.25-0.01,0.35-0.04c0.44-0.11,0.86-0.11,1.32-0.13c0.08,0,0.14,0,0.2,0
			c0.31,0,0.42,0.04,0.73,0.04c0.06,0,0.12,0,0.19,0c0.13-0.01,0.17-0.01,0.21-0.01c0.03,0,0.06,0,0.15,0.01c0.01,0,0.03,0,0.04,0
			c0.05,0,0.13-0.01,0.2-0.01c0.04,0,0.07,0,0.11,0.01l0.02,0.01l0,0c0,0,0,0,0,0c0.02,0,0.04,0,0.08,0c0.17,0,0.45-0.03,0.49-0.03
			c0.11,0,0.2,0,0.29,0c0.07,0,0.15,0,0.25,0.01c0.11,0.01,0.22,0.03,0.32,0.03c0.05,0,0.09,0,0.13-0.01
			c0.02-0.01,0.04-0.01,0.05-0.01c0.13,0.01,0.23,0.09,0.28,0.09c0,0,0.01,0,0.01,0c0.11-0.02,0.18-0.03,0.23-0.03
			c0.09,0,0.11,0.02,0.16,0.02c0.01,0,0.02,0,0.03,0c0.26-0.02,0.54-0.07,0.85-0.07c0.02,0,0.04,0,0.05,0c0.12,0,0.24,0,0.36,0
			c0.29,0,0.61-0.01,0.95-0.03l0.01,0l0.45,0.06c0.1,0.01,0.18,0.05,0.25,0.1l0.03,0.02l0,0.03c0.01,0.38,0.01,0.97,0.01,1.1
			c0,0.03,0.05,0.15,0.05,0.24c0,0.02,0,0.04-0.01,0.07c-0.02,0.04,0,0.07-0.06,0.17c-0.03,0.05-0.05,0.16-0.05,0.26
			c0,0.03,0,0.05,0,0.07c0.01,0.13,0.03,0.25,0.03,0.38c0,0.02,0,0.03,0,0.05c0,0.04-0.01,0.08-0.01,0.11c0,0.08,0.01,0.1,0.07,0.19
			c0.07,0.11,0.02,0.18,0.05,0.21c0.03,0.05,0.06,0.12,0.09,0.15c0.02,0.03,0.09,0.07,0.16,0.1c0.22,0.14,0.64,0.2,1.1,0.2
			c0.46,0,0.89-0.06,1.1-0.2c0,0,0,0,0.01-0.01l0.06-0.04L59.54,58.52z"/>
		<path class="st25" d="M61.11,60.06L61.11,60.06c-0.03,0-0.06-0.01-0.07-0.01h-0.03l-1.39-0.09c-0.01,0-0.02,0-0.03,0
			c-0.11,0-0.21-0.04-0.27-0.04c-0.01,0-0.01,0-0.02,0c-0.04,0.01-0.07,0.01-0.1,0.01c-0.07,0-0.12-0.01-0.18-0.01
			c-0.01,0-0.01,0-0.02,0c-0.16,0.01-0.25,0.04-0.33,0.11l-0.02,0.02l-0.02,0l-0.2,0l-0.01,0c-0.07-0.02-0.14-0.03-0.23-0.03
			c-0.2,0-0.42,0.05-0.63,0.05c-0.02,0-0.03,0-0.05,0c-0.04,0-0.07-0.01-0.08-0.02l-0.01,0c-0.01,0-0.04,0.01-0.06,0.01
			c-0.03,0.01-0.03,0.01-0.06,0.02c-0.01,0-0.01,0-0.01,0c-0.1,0-0.23-0.07-0.3-0.06c-0.02,0-0.03,0-0.03,0.01l-0.02,0.01
			l-1.19,0.02h-1.7l-1.11,0l-0.01-0.01c-0.18-0.09-0.79-0.11-1.03-0.12c-0.12-0.01-0.23-0.01-0.34-0.01c-0.43,0-0.82,0.04-1.32,0.08
			c-0.21,0.01-0.74,0-0.93,0.04c-0.22,0.05-0.19,0.03-0.38,0.12c-0.1,0.05-0.18,0.07-0.26,0.07c-0.22-0.01-0.36-0.14-0.6-0.16
			c-0.24-0.03-0.43-0.09-0.64-0.09c-0.11,0-0.24,0.02-0.39,0.07l-0.01,0l-0.66-0.02c-0.01,0-0.03,0-0.04,0
			c-0.25,0-0.48-0.1-0.69-0.14c-0.06-0.01-0.11-0.01-0.15-0.01c-0.15,0-0.21,0.06-0.41,0.12c-0.08,0.03-0.17,0.04-0.25,0.04
			c-0.18,0-0.35-0.04-0.44-0.04c-0.03,0-0.04,0-0.04,0.01l-0.01,0.01l-0.02,0c-0.08,0.01-0.12,0.03-0.14,0.04l-0.01,0l-0.01,0
			c-0.1,0.02-0.24,0.07-0.33,0.19c-0.13,0.17-0.2,0.52-0.2,0.9c0,0.37,0.06,0.72,0.2,0.89c0.14,0.19,0.41,0.2,0.45,0.2
			c0.01,0,0.01,0,0.01,0h0.07l0.01,0c0.03,0.01,0.08,0.02,0.13,0.02c0.11,0,0.26-0.03,0.35-0.04c0.07-0.01,0.13-0.01,0.2-0.01
			c0.14,0,0.27,0.01,0.43,0.02l2.01-0.01l0.02,0.01h3.69l0,0.06c0,0.01,0,0.01,0,0.02c0,0.15,0.02,0.35,0.03,0.45
			c0,0.02,0,0.04,0,0.06c0,0.17-0.07,0.47-0.07,0.62c0,0.01,0,0.03,0,0.04c0.01,0.12,0.06,0.38,0.06,0.51c0,0.04,0,0.05,0,0.07
			c0,0.01-0.01,0.02-0.02,0.1c-0.01,0.07-0.03,0.28-0.03,0.41l0,0.06l-0.06,0c0,0-0.01,0-0.01,0c-0.04,0-0.08,0.02-0.12,0.05
			l-0.01,0.01l-0.73,0c-0.17-0.02-0.34-0.03-0.51-0.03c-0.11,0-0.22,0-0.34,0c-0.09,0-0.19,0-0.28-0.01
			c-0.19-0.01-0.49-0.01-0.79-0.01c-0.34,0-0.69,0-0.89,0.02c-0.01,0-0.02,0-0.02,0c-0.22,0-0.4-0.09-0.58-0.09
			c-0.01,0-0.02,0-0.03,0c-0.07,0-0.14,0.05-0.24,0.09l-0.01,0l-0.01,0c-0.03,0-0.07-0.01-0.1-0.01c-0.15,0-0.27,0.04-0.38,0.12
			c-0.05,0.03-0.09,0.07-0.13,0.12c-0.14,0.17-0.2,0.52-0.2,0.89c0,0.35,0.06,0.67,0.17,0.85c0.01,0.02,0.02,0.03,0.03,0.04
			c0.14,0.19,0.41,0.2,0.45,0.2c0.01,0,0.01,0,0.01,0h0.07l0.01,0l0.01,0c0.01,0,0.01,0,0.02,0c0.01,0,0.04,0,0.07-0.01h0.03
			c0.05,0.01,0.09,0.03,0.09,0.03c0,0,0.01,0,0.03-0.01c0.03-0.01,0.06-0.02,0.09-0.03l0.01,0h0.46c0.02-0.01,0.05-0.02,0.07-0.03
			l0.01,0h0.01c0.41,0.01,1.06,0.03,1.36,0.06c0.13,0.01,0.26,0.02,0.39,0.01c0.48,0,0.96-0.06,1.45-0.06c0.25,0,0.5,0.02,0.75,0.06
			c0.12,0.02,0.25,0.07,0.36,0.07c0.02,0,0.04,0,0.07-0.01c0.15-0.02,0.3-0.12,0.49-0.15c0.09-0.01,0.2-0.01,0.31-0.01
			c0.08,0,0.16,0,0.24,0c0.22,0.02,0.47,0.02,0.69,0.07c0.19,0.04,0.35,0.08,0.5,0.08c0.04,0,0.08,0,0.13-0.01
			c0.05-0.01,0.12-0.01,0.19-0.01c0.18,0,0.42,0.02,0.64,0.02c0.3,0,0.57-0.05,0.62-0.16l0.03-0.05l0.05,0.03
			c0.16,0.09,0.44,0.1,0.71,0.11c0.25,0.02,0.49,0.04,0.62,0.21l0.04-0.01v0.08c0,0.09,0,0.2,0,0.31v0.04
			c-0.01,0.59-0.02,1.37-0.02,1.94c0,0.35,0,0.62,0.02,0.73l0.02,0.46l-0.01,0.02c0,0-0.01,0.01-0.01,0.03
			c0,0.04,0.02,0.11,0.02,0.17c0,0.01,0,0.02,0,0.03c-0.01,0.05-0.01,0.1-0.01,0.14c0,0.06,0,0.11,0,0.17
			c0,0.08-0.01,0.17-0.07,0.28c-0.01,0.05-0.01,0.1-0.01,0.15c0,0.09,0.01,0.17,0.04,0.25c0.03,0.1,0.08,0.23,0.23,0.32
			c0.22,0.14,0.65,0.2,1.11,0.2c0.4,0,0.77-0.05,1-0.15l0.05-0.02v0c0.25-0.11,0.36-0.26,0.36-0.47c0-0.05-0.01-0.1-0.02-0.16
			c-0.05-0.31-0.08-0.46-0.11-0.8c-0.01-0.1-0.01-0.24-0.01-0.39c0-0.41,0.03-0.95,0.03-1.13c0-0.28,0.02-1.88,0.06-2.16
			c0.01-0.04,0.01-0.09,0.01-0.14c0-0.18-0.03-0.39-0.03-0.6c0-0.08,0-0.16,0.02-0.23v-0.01l0-0.01c0.03-0.08,0.05-0.15,0.05-0.24
			c0-0.23-0.13-0.5-0.34-0.77c-0.1-0.14-0.13-0.17-0.15-0.18c-0.02-0.01-0.09-0.02-0.26-0.1c-0.06-0.03-0.12-0.06-0.19-0.09
			c0,0-0.01,0-0.01-0.01l-0.02-0.01c0,0,0,0-0.01,0l-0.01,0c-0.14-0.04-0.28-0.07-0.43-0.07h-4.15l-0.02-0.04
			c-0.1-0.23-0.08-0.64-0.09-0.72c0-0.23,0.01-0.27,0.03-0.45c0-0.05,0.01-0.09,0.01-0.14c0-0.22-0.03-0.46-0.03-0.67
			c0-0.14,0.01-0.26,0.06-0.38l0.02-0.04h3.15c0.01,0,0.02,0,0.03-0.01l0.01,0h0.01c0.02,0,0.04,0,0.07,0c0,0,0.01,0,0.01,0
			c0,0,0.43,0.02,0.46,0.02c0.01,0,0.03,0,0.04,0c0.1,0,0.2-0.01,0.32-0.01c0.05,0,0.1,0,0.16,0.01c0.02,0.01,0.04,0.01,0.06,0.01
			c0.07,0,0.13-0.04,0.24-0.04c0.03,0,0.06,0,0.09,0.01c0.05,0.01,0.09,0.02,0.13,0.02c0.03,0,0.05,0,0.08-0.02
			c0.03-0.01,0.06-0.01,0.09-0.01c0.11,0,0.24,0.03,0.3,0.03c0,0,0.01,0,0.01,0c0.19-0.01,0.38-0.02,0.57-0.03
			c0.13-0.01,0.24-0.01,0.34-0.01c0.1,0,0.2,0.01,0.31,0.02c0.07,0.01,0.16,0.02,0.24,0.02c0.1,0,0.19-0.01,0.23-0.04
			c0.13-0.08,0.26-0.06,0.29-0.11c0.14-0.2,0.14-0.25,0.25-0.42c0.01-0.01,0.01-0.03,0.01-0.06c0-0.02,0-0.05,0-0.09
			c0,0,0-0.01,0-0.02c0-0.02,0.01-0.05,0.01-0.08c0.01-0.09,0.01-0.2,0.01-0.3c0-0.38-0.06-0.72-0.2-0.9
			C61.38,60.11,61.21,60.07,61.11,60.06z"/>
	</g>
</g>
</svg>
