<?xml version="1.0" encoding="utf-8"?>
<!-- Generator: Adobe Illustrator 23.0.3, SVG Export Plug-In . SVG Version: 6.00 Build 0)  -->
<svg version="1.1" id="Layer_1" xmlns="http://www.w3.org/2000/svg" xmlns:xlink="http://www.w3.org/1999/xlink" x="0px" y="0px"
	 viewBox="0 0 220 50" style="enable-background:new 0 0 220 50;" xml:space="preserve">
<style type="text/css">
	.st0{fill:#FFFFFF;}
	.st1{fill:none;stroke:#FFFFFF;stroke-miterlimit:10;}
	.st2{fill:none;stroke:#FFFFFF;stroke-linecap:round;stroke-linejoin:round;stroke-miterlimit:10;}
	.st3{fill:none;stroke:#FFFFFF;stroke-linejoin:round;stroke-miterlimit:10;}
	.st4{fill:none;stroke:#FFFFFF;stroke-linecap:round;stroke-miterlimit:10;}
	.st5{fill:#CCCCCC;}
	.st6{fill:#2B61A0;}
	.st7{fill:#FFF2E3;stroke:#C7B299;stroke-width:3;}
	.st8{fill:#004F9C;}
	.st9{fill:#51A4DB;}
	.st10{fill:#29B5B2;}
	.st11{fill:#EFDFCA;}
	.st12{fill:none;stroke:#C7B299;stroke-width:3;}
	.st13{fill:none;stroke:#C7B299;stroke-width:3;stroke-dasharray:5.1429,5.1429;}
	.st14{fill:#FFFFFF;stroke:#F2F2F2;stroke-width:3;}
	.st15{fill:#52A5DC;stroke:#A6E4F4;stroke-width:3;}
	.st16{fill:#DB5953;stroke:#F2B3A7;stroke-width:2;}
	.st17{fill:#E6E6E6;stroke:#F2F2F2;stroke-width:3;}
	.st18{fill:#A32B31;}
	.st19{fill:#0D75BC;stroke:#51A4DB;stroke-width:3;}
	.st20{fill:#666666;}
	.st21{fill:none;stroke:#FBB03B;stroke-width:5;stroke-miterlimit:10;}
	.st22{fill:none;stroke:#FFCE8D;stroke-width:5;stroke-miterlimit:10;}
	.st23{fill-rule:evenodd;clip-rule:evenodd;fill:#D0AB66;}
	.st24{fill-rule:evenodd;clip-rule:evenodd;fill:#700005;}
	.st25{fill:#D0AB66;}
	.st26{fill-rule:evenodd;clip-rule:evenodd;fill:#FFFFFF;}
	.st27{fill:#AC7225;}
	.st28{fill-rule:evenodd;clip-rule:evenodd;fill:#AC7225;}
</style>
<g>
	<g>
		<g>
			<path class="st8" d="M34.23,8.78c2.13,0,4.12,0.55,5.85,1.52c1.73-0.97,3.72-1.52,5.85-1.52c5.51,0,10.14,3.71,11.56,8.77h0.21
				c-1.77-8.1-8.98-14.17-17.62-14.17c-8.63,0-15.84,6.07-17.61,14.17h0.21C24.09,12.49,28.72,8.78,34.23,8.78z"/>
			<path class="st9" d="M40.08,10.31c-1.73-0.97-3.73-1.52-5.85-1.52c-5.51,0-10.14,3.71-11.55,8.77h11.7
				C35.24,14.44,37.32,11.85,40.08,10.31z"/>
			<path class="st10" d="M45.93,8.78c-2.12,0-4.12,0.55-5.85,1.52c2.76,1.54,4.84,4.14,5.71,7.24h11.7
				C56.07,12.49,51.44,8.78,45.93,8.78z"/>
		</g>
		<polygon class="st8" points="78.91,46.62 78,44.87 2.16,44.87 1.25,46.62 		"/>
		<g>
			<polygon class="st8" points="10.63,22.4 11.15,41.68 7.35,41.68 7.86,22.4 			"/>
			<polygon class="st8" points="19.44,22.4 19.96,41.68 16.16,41.68 16.67,22.4 			"/>
			<polygon class="st8" points="28.25,22.4 28.77,41.68 24.96,41.68 25.48,22.4 			"/>
			<polygon class="st8" points="37.06,22.4 37.58,41.68 33.77,41.68 34.29,22.4 			"/>
			<polygon class="st8" points="45.86,22.4 46.39,41.68 42.58,41.68 43.09,22.4 			"/>
			<polygon class="st8" points="54.67,22.4 55.2,41.68 51.39,41.68 51.9,22.4 			"/>
			<polygon class="st8" points="63.48,22.4 64,41.68 60.2,41.68 60.71,22.4 			"/>
			<polygon class="st8" points="72.29,22.4 72.81,41.68 69.01,41.68 69.52,22.4 			"/>
		</g>
		<polygon class="st8" points="1.25,19.3 2.16,21.05 78,21.05 78.91,19.3 		"/>
		<polygon class="st8" points="4.83,43.02 4.3,44.05 75.86,44.05 75.33,43.02 		"/>
	</g>
	<g>
		<g>
			<g>
				<path class="st0" d="M174.7,28.29v-1.82c0,0-2.8,0-3.09,0c0.18-0.29,0.34-0.7,0.48-1.23c0.16-0.62,0.24-1.2,0.24-1.74v-2.9
					c0-0.38-0.12-0.68-0.36-0.92c-0.24-0.24-0.55-0.36-0.92-0.36h-14.3l0.94,1.82c2.1,0,11.46,0,11.61,0c0,0.16,0,2.44,0,2.44
					c0,0.53-0.03,1.07-0.08,1.58c-0.05,0.48-0.15,0.92-0.29,1.3c-0.12,0-11.98,0-14.64,0l0.94,1.82c1.65,0,7.69,0,7.84,0
					c0,0.16,0,3.11,0,3.27c-0.14,0-4.98,0-6.61,0l0.94,1.82c2.12,0,11.65,0,11.81,0c0,0.17,0,5.26,0,5.26h3.03v-5.8
					c0-0.38-0.12-0.68-0.36-0.92c-0.24-0.24-0.55-0.36-0.92-0.36c-1.76,0-4.74,0-4.86,0c0-0.16,0-3.11,0-3.27
					C166.27,28.29,174.7,28.29,174.7,28.29z"/>
			</g>
			<g>
				<g>
					<path class="st0" d="M189.8,28.29c0.17,0,8.6,0,8.6,0v-1.82c0,0-2.8,0-3.09,0c0.18-0.29,0.34-0.7,0.48-1.23
						c0.16-0.62,0.24-1.2,0.24-1.74v-2.9c0-0.38-0.12-0.68-0.36-0.92c-0.24-0.24-0.55-0.36-0.92-0.36h-14.3l0.94,1.82
						c2.1,0,11.46,0,11.61,0c0,0.16,0,2.44,0,2.44c0,0.53-0.03,1.07-0.08,1.58c-0.05,0.48-0.15,0.92-0.3,1.3
						c-0.11,0-11.98,0-14.64,0l0.94,1.82c1.65,0,7.69,0,7.84,0c0,0.16,0,3.11,0,3.27c-0.14,0-4.98,0-6.61,0l0.94,1.82
						c2.12,0,11.65,0,11.81,0c0,0.17,0,5.26,0,5.26h3.03v-5.8c0-0.38-0.12-0.68-0.36-0.92c-0.24-0.24-0.55-0.36-0.92-0.36
						c-1.77,0-4.74,0-4.86,0C189.8,31.4,189.8,28.45,189.8,28.29"/>
				</g>
				<path class="st0" d="M213.49,21.16h-4.48c0-0.44,0-2.21,0-2.21h-3.78c-0.17,0-0.63-0.01-0.63,0.37c0,0.12,0.05,0.4,0.5,0.4
					c0.21,0,0.39,0.02,0.52,0.06c0.16,0.03,0.31,0.11,0.36,0.57c0,0.35,0,0.66,0,0.82h-5.7l0.94,1.82h2.4
					c-1,0.8-1.62,1.92-1.62,3.15c0,2.03,1.69,3.74,3.99,4.27c0,0.13,0,1.45,0,1.61c-0.13,0-4.27,0-6.12,0l0.94,1.82H213
					c0.72,0,1.51-0.2,2.36-0.61v5.43h2.98V19.23h-3.74c-0.17,0-0.63-0.01-0.63,0.37c0,0.12,0.05,0.4,0.5,0.4
					c0.2,0,0.38,0.02,0.52,0.06c0.16,0.03,0.31,0.11,0.36,0.57v10.72c-0.53,0.44-1.31,0.66-2.35,0.66l-3.99,0c0-0.15,0-1.5,0-1.61
					h-0.01c2.29-0.53,3.97-2.24,3.97-4.26c0-1.23-0.62-2.34-1.62-3.15h2.14V21.16z M204.99,26.1c0-1.59,1.12-2.88,2.5-2.88
					c1.38,0,2.5,1.29,2.5,2.88c0,1.59-1.12,2.88-2.5,2.88C206.11,28.98,204.99,27.69,204.99,26.1z"/>
			</g>
			<path class="st0" d="M134.95,28.56c0,0.37,0.12,0.68,0.36,0.91c0.24,0.23,0.54,0.35,0.92,0.35h9.08v-9.9H134.2
				c-0.17,0-0.63-0.01-0.63,0.37c0,0.12,0.05,0.4,0.5,0.4c0.2,0,0.38,0.02,0.52,0.06c0.16,0.03,0.31,0.11,0.36,0.57l0,0V28.56z
				 M142.28,28c-0.17,0-4.13,0-4.3,0c0-0.17,0-6.1,0-6.27c0.17,0,4.13,0,4.3,0C142.28,21.9,142.28,27.83,142.28,28z"/>
			<g>
				<path class="st0" d="M140.94,36.82c0-0.17,0-4.97,0-4.97h-3.78c-0.17,0-0.63-0.01-0.63,0.37c0,0.12,0.05,0.4,0.5,0.4
					c0.2,0,0.38,0.02,0.52,0.06c0.16,0.03,0.31,0.11,0.36,0.57v4.13c0,0.37,0.12,0.68,0.36,0.91c0.24,0.23,0.55,0.35,0.92,0.35
					h13.14v-1.82C152.33,36.82,141.11,36.82,140.94,36.82z"/>
			</g>
			<path class="st0" d="M148.28,19.23c-0.17,0-0.63-0.01-0.63,0.37c0,0.12,0.05,0.4,0.5,0.4c0.2,0,0.39,0.02,0.52,0.06
				c0.16,0.03,0.31,0.11,0.36,0.57v13h3.03V19.23H148.28z"/>
			<g>
				<path class="st0" d="M114.98,32.23c-0.17,0-0.63-0.01-0.63,0.37c0,0.12,0.05,0.4,0.5,0.4c0.2,0,0.39,0.02,0.52,0.06
					c0.16,0.03,0.31,0.11,0.36,0.57v3.76c0,0.37,0.12,0.67,0.36,0.91c0.24,0.23,0.55,0.35,0.92,0.35h12.5v-1.82c0,0-10.58,0-10.75,0
					c0-0.17,0-4.59,0-4.59H114.98z"/>
				<path class="st0" d="M125.38,19.23c-0.17,0-0.63-0.01-0.63,0.37c0,0.12,0.05,0.4,0.5,0.4c0.2,0,0.39,0.02,0.52,0.06
					c0.16,0.03,0.31,0.11,0.36,0.57v13h3.03c0,0,0-8.1,0-8.28c0.17,0,3.29,0,3.29,0v-1.82c0,0-3.12,0-3.29,0c0-0.17,0-4.3,0-4.3
					H125.38z"/>
				<path class="st0" d="M115.75,18.84c-0.17,0-0.63-0.01-0.63,0.37c0,0.12,0.05,0.4,0.5,0.4c0.21,0,0.39,0.02,0.52,0.06
					c0.16,0.03,0.31,0.11,0.36,0.57c0,0.35,0,0.66,0,0.82h-5.27l0.94,1.82h2.31c-1.19,0.82-1.95,2.04-1.95,3.4
					c0,2.46,2.46,4.45,5.49,4.45c3.03,0,5.49-1.99,5.49-4.45c0-1.36-0.76-2.59-1.95-3.4h2.36v-0.09v-1.64v-0.09h-4.39
					c0-0.44,0-2.21,0-2.21H115.75z M115.52,26.27c0-1.58,1.12-2.86,2.5-2.86c1.38,0,2.5,1.28,2.5,2.86c0,1.58-1.12,2.86-2.5,2.86
					C116.64,29.13,115.52,27.85,115.52,26.27z"/>
			</g>
			<g>
				<path class="st0" d="M105.06,19.23c-0.17,0-0.63-0.01-0.63,0.37c0,0.12,0.05,0.4,0.5,0.4c0.2,0,0.39,0.02,0.52,0.06
					c0.16,0.03,0.31,0.11,0.36,0.57c0,1.55,0,3.84,0,3.95c-0.16,0-2.12,0-2.28,0c0-0.17,0-5.35,0-5.35H99.9
					c-0.17,0-0.63-0.01-0.63,0.37c0,0.12,0.05,0.4,0.5,0.4c0.2,0,0.38,0.02,0.52,0.06c0.16,0.03,0.31,0.11,0.36,0.57v8.65
					c-0.53,0.44-1.31,0.65-2.34,0.65H93.9v-8.15c0.17,0,4.08,0,4.08,0v-1.82h-7.82c-0.17,0-0.63-0.01-0.63,0.37
					c0,0.12,0.05,0.4,0.5,0.4c0.2,0,0.39,0.02,0.52,0.06c0.16,0.03,0.31,0.11,0.36,0.57v9.13c0,0.37,0.12,0.68,0.36,0.91
					c0.24,0.23,0.55,0.35,0.92,0.35h6.11c0.72,0,1.51-0.2,2.35-0.61v7.51h2.88c0,0,0-12.07,0-12.25c0.16,0,2.12,0,2.28,0
					c0,0.17,0,12.25,0,12.25h2.87V19.23H105.06z"/>
			</g>
		</g>
		<path class="st0" d="M91.84,43.25H90.9v-0.49h2.53v0.49h-0.95v3.29h-0.64V43.25z"/>
		<path class="st0" d="M93.83,42.76h0.64v1.56h1.36v-1.56h0.64v3.77h-0.64v-1.72h-1.36v1.72h-0.64V42.76z"/>
		<path class="st0" d="M97.28,42.76h2.2v0.49h-1.56v1.09h1.48v0.49h-1.48v1.22h1.61v0.49h-2.25V42.76z"/>
		<path class="st0" d="M101.73,42.76h0.79l1.45,2.78h0.01v-2.78h0.58v3.77h-0.72l-1.53-2.91h-0.01v2.91h-0.58V42.76z"/>
		<path class="st0" d="M106.64,43.37h0.01l0.52,1.66h-1.05L106.64,43.37z M104.97,46.53h0.67l0.33-1.02h1.36l0.33,1.02h0.67
			l-1.28-3.77h-0.77L104.97,46.53z"/>
		<path class="st0" d="M109.16,43.25h-0.95v-0.49h2.53v0.49h-0.95v3.29h-0.64V43.25z"/>
		<path class="st0" d="M111.13,42.76h0.64v3.77h-0.64V42.76z"/>
		<path class="st0" d="M113.11,44.64c0-0.8,0.17-1.49,0.82-1.49c0.64,0,0.82,0.69,0.82,1.49c0,0.8-0.18,1.49-0.82,1.49
			C113.28,46.14,113.11,45.45,113.11,44.64z M113.93,46.59c1.17,0,1.52-0.85,1.52-1.95c0-1.1-0.35-1.95-1.52-1.95
			c-1.18,0-1.52,0.85-1.52,1.95C112.4,45.74,112.75,46.59,113.93,46.59z"/>
		<path class="st0" d="M116.1,42.76h0.79l1.45,2.78h0.01v-2.78h0.58v3.77h-0.72l-1.52-2.91h-0.01v2.91h-0.58V42.76z"/>
		<path class="st0" d="M121.01,43.37h0.01l0.52,1.66h-1.05L121.01,43.37z M119.34,46.53h0.67l0.33-1.02h1.36l0.33,1.02h0.67
			l-1.28-3.77h-0.77L119.34,46.53z"/>
		<path class="st0" d="M123.09,42.76h0.64v3.28h1.48v0.49h-2.12V42.76z"/>
		<path class="st0" d="M128.5,43.37h0.01l0.52,1.66h-1.05L128.5,43.37z M126.83,46.53h0.67l0.33-1.02h1.36l0.33,1.02h0.67
			l-1.28-3.77h-0.77L126.83,46.53z"/>
		<path class="st0" d="M132.58,43.39c-0.25-0.1-0.56-0.24-0.95-0.24c-0.32,0-0.57,0.14-0.57,0.46c0,0.67,1.8,0.77,1.8,1.9
			c0,0.71-0.57,1.07-1.39,1.07c-0.49,0-0.93-0.13-1.04-0.16v-0.66c0.22,0.14,0.59,0.37,1.07,0.37c0.5,0,0.66-0.28,0.66-0.52
			c0-0.82-1.8-0.87-1.8-1.94c0-0.67,0.58-0.97,1.3-0.97c0.42,0,0.79,0.08,0.92,0.1V43.39z"/>
		<path class="st0" d="M135.41,43.39c-0.25-0.1-0.56-0.24-0.95-0.24c-0.32,0-0.57,0.14-0.57,0.46c0,0.67,1.8,0.77,1.8,1.9
			c0,0.71-0.57,1.07-1.39,1.07c-0.49,0-0.93-0.13-1.04-0.16v-0.66c0.22,0.14,0.59,0.37,1.07,0.37c0.5,0,0.66-0.28,0.66-0.52
			c0-0.82-1.8-0.87-1.8-1.94c0-0.67,0.58-0.97,1.3-0.97c0.42,0,0.79,0.08,0.92,0.1V43.39z"/>
		<path class="st0" d="M136.25,42.76h2.2v0.49h-1.56v1.09h1.48v0.49h-1.48v1.22h1.61v0.49h-2.25V42.76z"/>
		<path class="st0" d="M139.08,42.76h0.87l1.05,3.01h0.01l1.05-3.01h0.87v3.77h-0.58v-2.97h-0.01l-1.04,2.97h-0.59l-1.04-2.97h-0.01
			v2.97h-0.58V42.76z"/>
		<path class="st0" d="M144.37,43.21h0.26c0.4,0,0.68,0.07,0.68,0.54c0,0.49-0.3,0.55-0.68,0.55h-0.26V43.21z M143.73,46.53h1.16
			c0.55,0,1.26-0.12,1.26-1.04c0-0.73-0.49-0.91-0.81-0.96v-0.01c0.22-0.09,0.63-0.26,0.63-0.87c0-0.77-0.66-0.89-1.07-0.89h-1.16
			V46.53z M144.37,44.76h0.26c0.53,0,0.87,0.17,0.87,0.67c0,0.56-0.45,0.64-0.87,0.64h-0.26V44.76z"/>
		<path class="st0" d="M146.79,42.76h0.64v3.28h1.48v0.49h-2.12V42.76z"/>
		<path class="st0" d="M149.85,44.78l-1.24-2.02h0.73l0.84,1.36l0.84-1.36h0.73l-1.25,2.02v1.75h-0.64V44.78z"/>
		<path class="st0" d="M154.21,44.64c0-0.8,0.17-1.49,0.82-1.49c0.64,0,0.82,0.69,0.82,1.49c0,0.8-0.18,1.49-0.82,1.49
			C154.38,46.14,154.21,45.45,154.21,44.64z M155.03,46.59c1.18,0,1.53-0.85,1.53-1.95c0-1.1-0.35-1.95-1.53-1.95
			c-1.18,0-1.53,0.85-1.53,1.95C153.5,45.74,153.85,46.59,155.03,46.59z"/>
		<path class="st0" d="M157.2,42.76h2.13v0.49h-1.49v1.09h1.41v0.49h-1.41v1.71h-0.64V42.76z"/>
		<path class="st0" d="M161.99,43.25h-0.95v-0.49h2.53v0.49h-0.95v3.29h-0.64V43.25z"/>
		<path class="st0" d="M163.98,42.76h0.64v1.56h1.36v-1.56h0.64v3.77h-0.64v-1.72h-1.36v1.72h-0.64V42.76z"/>
		<path class="st0" d="M167.42,42.76h2.2v0.49h-1.56v1.09h1.48v0.49h-1.48v1.22h1.61v0.49h-2.25V42.76z"/>
		<path class="st0" d="M172.51,43.21h0.5c0.36,0,0.56,0.21,0.56,0.61c0,0.56-0.42,0.64-0.81,0.64h-0.25V43.21z M171.87,46.53h0.64
			v-1.62h0.25c0.58,0,0.66,0.2,0.79,0.8l0.18,0.81h0.65l-0.23-1.06c-0.09-0.4-0.15-0.72-0.67-0.84v-0.01
			c0.39-0.09,0.75-0.28,0.75-0.87c0-0.74-0.5-0.99-1.21-0.99h-1.14V46.53z"/>
		<path class="st0" d="M174.92,42.76h2.2v0.49h-1.56v1.09h1.48v0.49h-1.48v1.22h1.61v0.49h-2.25V42.76z"/>
		<path class="st0" d="M178.39,43.21h0.33c0.42,0,0.67,0.15,0.67,0.63c0,0.43-0.29,0.62-0.67,0.62h-0.33V43.21z M177.75,46.53h0.64
			v-1.61h0.33c0.52,0,1.32-0.17,1.32-1.08c0-1-0.74-1.09-1.32-1.09h-0.97V46.53z"/>
		<path class="st0" d="M183.06,45.38c0,0.83-0.5,1.21-1.31,1.21c-0.78,0-1.31-0.38-1.31-1.21v-2.62h0.64v2.62
			c0,0.43,0.17,0.76,0.67,0.76c0.5,0,0.67-0.33,0.67-0.76v-2.62h0.64V45.38z"/>
		<path class="st0" d="M184.46,43.21h0.26c0.4,0,0.68,0.07,0.68,0.54c0,0.49-0.3,0.55-0.68,0.55h-0.26V43.21z M183.82,46.53h1.16
			c0.55,0,1.26-0.12,1.26-1.04c0-0.73-0.49-0.91-0.81-0.96v-0.01c0.22-0.09,0.63-0.26,0.63-0.87c0-0.77-0.66-0.89-1.07-0.89h-1.16
			V46.53z M184.46,44.76h0.26c0.53,0,0.87,0.17,0.87,0.67c0,0.56-0.45,0.64-0.87,0.64h-0.26V44.76z"/>
		<path class="st0" d="M186.87,42.76h0.64v3.28h1.48v0.49h-2.12V42.76z"/>
		<path class="st0" d="M189.38,42.76h0.64v3.77h-0.64V42.76z"/>
		<path class="st0" d="M193.27,46.37c-0.18,0.08-0.57,0.22-1.03,0.22c-1.1,0-1.59-0.79-1.59-1.96c0-1.11,0.41-1.93,1.49-1.93
			c0.87,0,1.27,0.51,1.27,1.09h-0.71c0-0.3-0.07-0.64-0.56-0.64c-0.66,0-0.78,0.79-0.78,1.38c0,0.9,0.26,1.56,1.03,1.56
			c0.42,0,0.78-0.22,0.88-0.28V46.37z"/>
		<path class="st0" d="M196.01,44.64c0-0.8,0.17-1.49,0.82-1.49c0.65,0,0.82,0.69,0.82,1.49c0,0.8-0.17,1.49-0.82,1.49
			C196.18,46.14,196.01,45.45,196.01,44.64z M196.83,46.59c1.18,0,1.53-0.85,1.53-1.95c0-1.1-0.35-1.95-1.53-1.95
			c-1.18,0-1.52,0.85-1.52,1.95C195.31,45.74,195.65,46.59,196.83,46.59z"/>
		<path class="st0" d="M199.01,42.76h2.13v0.49h-1.49v1.09h1.41v0.49h-1.41v1.71h-0.64V42.76z"/>
		<path class="st0" d="M203.25,42.76h0.64v1.65h0.01l1.21-1.65h0.78l-1.33,1.79l1.44,1.98h-0.78l-1.32-1.84h-0.01v1.84h-0.64V42.76z
			"/>
		<path class="st0" d="M206.94,44.64c0-0.8,0.17-1.49,0.82-1.49c0.64,0,0.82,0.69,0.82,1.49c0,0.8-0.17,1.49-0.82,1.49
			C207.11,46.14,206.94,45.45,206.94,44.64z M207.76,46.59c1.17,0,1.52-0.85,1.52-1.95c0-1.1-0.35-1.95-1.52-1.95
			c-1.18,0-1.53,0.85-1.53,1.95C206.24,45.74,206.58,46.59,207.76,46.59z"/>
		<path class="st0" d="M210.56,43.21h0.5c0.36,0,0.56,0.21,0.56,0.61c0,0.56-0.42,0.64-0.81,0.64h-0.25V43.21z M209.92,46.53h0.64
			v-1.62h0.25c0.58,0,0.66,0.2,0.79,0.8l0.18,0.81h0.65l-0.23-1.06c-0.09-0.4-0.15-0.72-0.67-0.84v-0.01
			c0.39-0.09,0.75-0.28,0.75-0.87c0-0.74-0.5-0.99-1.21-0.99h-1.14V46.53z"/>
		<path class="st0" d="M212.97,42.76h2.2v0.49h-1.56v1.09h1.48v0.49h-1.48v1.22h1.61v0.49h-2.25V42.76z"/>
		<path class="st0" d="M217.07,43.37h0.01l0.52,1.66h-1.05L217.07,43.37z M215.41,46.53h0.67l0.33-1.02h1.36l0.33,1.02h0.67
			l-1.28-3.77h-0.77L215.41,46.53z"/>
	</g>
</g>
</svg>
